<?xml version="1.0" encoding="UTF-8"?>
<svg version="1.1" xmlns="http://www.w3.org/2000/svg" width="717" height="348">
    <path
        d="M0 0 C3.68715843 0.26336846 6.37633647 0.21692644 9.875 -1 C15.41577754 -2.77304881 20.19269869 -2.76096897 25.5625 -0.5 C26.366875 -0.005 27.17125 0.49 28 1 C28 1.66 28 2.32 28 3 C28.66 3 29.32 3 30 3 C30 3.66 30 4.32 30 5 C30.86625 5.3403125 30.86625 5.3403125 31.75 5.6875 C40.39362741 10.72961599 45.81619836 23.52782042 48.33984375 32.7265625 C49.88931154 40.40972233 50.21982589 47.47734709 46.13671875 54.3828125 C43.33353824 58.37084251 40.75433779 60.73217659 36 62 C29.3390963 62.71501226 23.66075949 61.84128579 18.25390625 57.64477539 C16.5194795 56.09621543 14.84601619 54.50448731 13.1875 52.875 C9.41772268 49.00009203 9.41772268 49.00009203 5 46 C5 45.34 5 44.68 5 44 C4.443125 43.7525 3.88625 43.505 3.3125 43.25 C1 42 1 42 -1.3125 40.125 C-8.79377436 34.20957376 -16.02909095 31.64586939 -25.5625 31.6875 C-26.30435547 31.67138672 -27.04621094 31.65527344 -27.81054688 31.63867188 C-32.36265657 31.63461835 -35.3078009 32.06411729 -39 35 C-41.23283912 38.34925868 -41.77385484 40.00476891 -42 44 C-41.29068805 46.80640814 -40.38064376 49.45158707 -39 52 C-38.34 52.33 -37.68 52.66 -37 53 C-37 53.66 -37 54.32 -37 55 C-33.64011749 56.37297274 -30.266862 57.62050837 -26.82421875 58.76953125 C-25.8391333 59.09840332 -24.85404785 59.42727539 -23.83911133 59.76611328 C-22.79907959 60.1114209 -21.75904785 60.45672852 -20.6875 60.8125 C-19.61459717 61.17069824 -18.54169434 61.52889648 -17.4362793 61.89794922 C-12.06363733 63.68386229 -6.68454583 65.42089592 -1.25976562 67.04125977 C17.59186873 72.69249569 36.79746504 81.99367568 46.51098633 99.97338867 C53.45327222 113.76608436 55.26812294 127.97353718 50.98046875 143.05078125 C48.32733696 151.0313171 45.45478466 158.51322905 40 165 C39.34 165 38.68 165 38 165 C37.73832031 165.58265625 37.47664062 166.1653125 37.20703125 166.765625 C29.64294013 180.76776131 10.80191064 187.67177973 -3.5625 192.09765625 C-33.79053884 200.03251645 -77.28544269 198.19850556 -105.171875 182.80078125 C-111.20837069 178.84074931 -113.98217121 173.42431736 -117 167 C-117.27150879 167.50337891 -117.54301758 168.00675781 -117.82275391 168.52539062 C-119.08358251 170.85389508 -120.35422016 173.17691251 -121.625 175.5 C-122.05167969 176.29148438 -122.47835938 177.08296875 -122.91796875 177.8984375 C-131.45147564 193.43706198 -131.45147564 193.43706198 -138.92919922 195.65820312 C-142.39361077 196.230023 -145.64236117 195.83686844 -149.0625 195.25 C-164.12304094 192.9168874 -179.19666691 192.83894919 -194.40371895 192.77020454 C-197.94773814 192.75358344 -201.4916601 192.73034809 -205.03562927 192.70530701 C-215.09995586 192.63505186 -225.16431709 192.57418179 -235.22875977 192.52319336 C-241.41229949 192.49140777 -247.59571698 192.45015902 -253.77915764 192.40299797 C-256.12706251 192.38700671 -258.47499528 192.3746719 -260.82293892 192.36609077 C-264.09636033 192.35393716 -267.36949281 192.32979427 -270.64282227 192.30297852 C-271.6075647 192.30238937 -272.57230713 192.30180023 -273.56628418 192.30119324 C-279.34670205 192.23844777 -284.06285581 191.70407285 -289.16796875 188.7421875 C-289.77253906 188.49726563 -290.37710937 188.25234375 -291 188 C-292.83306501 189.1759285 -294.66379415 190.35561576 -296.484375 191.55078125 C-306.73448981 197.45573869 -318.13425142 197.41201675 -329.625 197.5 C-330.93476807 197.51844971 -332.24453613 197.53689941 -333.59399414 197.5559082 C-345.44552011 197.48063913 -356.39731819 195.24412838 -366 188 C-366.81339844 187.41347656 -367.62679687 186.82695312 -368.46484375 186.22265625 C-382.90669924 173.56099866 -386.59196628 149.07895857 -390.5 131.25 C-392.23174141 124.2420172 -395.45820675 118.48127437 -400.625 113.4375 C-405.62455803 111.30805862 -410.61160273 111.17438179 -416 111 C-417.21372319 114.79492803 -417.16165558 118.56987104 -417.16796875 122.51171875 C-417.17129715 123.23937943 -417.17462555 123.9670401 -417.17805481 124.7167511 C-417.18310905 126.25574107 -417.1854636 127.79474197 -417.18530273 129.33374023 C-417.18747632 131.66213618 -417.20561181 133.99004797 -417.22460938 136.31835938 C-417.25733514 144.98975474 -416.7672356 152.69829321 -414 161 C-412.35008418 161.70710678 -410.6792238 162.36562656 -409 163 C-405.2288586 165.03641636 -403.30195468 166.50323585 -401.0625 170.1875 C-399.46569531 175.91721094 -399.68249564 180.52967932 -402.5 185.8125 C-410.08144047 192.44626042 -419.29679878 193.05746 -429 194 C-430.61261719 194.16822266 -430.61261719 194.16822266 -432.2578125 194.33984375 C-445.3670908 195.53906344 -458.33212007 195.18413366 -471.4375 194.1875 C-472.92890503 194.08248169 -472.92890503 194.08248169 -474.45043945 193.9753418 C-482.37017084 193.3113369 -489.98939681 192.06714317 -496.75 187.6875 C-499.8429577 185.65550705 -499.8429577 185.65550705 -502.9375 186.5625 C-503.948125 187.036875 -504.95875 187.51125 -506 188 C-516.1398108 192.20109298 -526.28966166 193.38008447 -537.1875 194.125 C-538.38858398 194.2084668 -539.58966797 194.29193359 -540.82714844 194.37792969 C-549.24776622 194.93656802 -557.56150039 195.40021138 -566 195 C-566.87640137 194.95891113 -567.75280273 194.91782227 -568.65576172 194.87548828 C-594.80952863 193.51317691 -594.80952863 193.51317691 -602.78515625 186.41015625 C-605.51162539 183.30395604 -606.91934353 180.83882725 -607.3125 176.75 C-606.9413702 172.29644235 -605.89685726 170.3666179 -603 167 C-600.25 165.625 -600.25 165.625 -598 165 C-598 164.34 -598 163.68 -598 163 C-596.28636151 161.43401182 -594.46624657 160.05071958 -592.62890625 158.6328125 C-581.92226756 147.90049842 -587.77248167 105.46896157 -587.75 91.375 C-587.74491425 90.08416504 -587.73982849 88.79333008 -587.73458862 87.46337891 C-587.69512368 74.9849395 -587.7298681 62.53971798 -588.828125 50.1015625 C-588.89723083 49.27143646 -588.96633667 48.44131042 -589.03753662 47.58602905 C-589.61321225 41.98811253 -590.6157352 36.67094053 -594.48632812 32.33496094 C-594.99615234 31.97176758 -595.50597656 31.60857422 -596.03125 31.234375 C-596.87623047 30.61175781 -596.87623047 30.61175781 -597.73828125 29.9765625 C-598.31964844 29.57179687 -598.90101563 29.16703125 -599.5 28.75 C-608.78177162 22.04078149 -608.78177162 22.04078149 -609.8125 17.125 C-610.11574111 13.5190677 -609.9581035 11.14999259 -608 8 C-596.69050294 -3.88947127 -574.97339116 -4.83849398 -559.52429199 -5.29763794 C-554.99532855 -5.39548974 -550.46740677 -5.42551424 -545.9375 -5.4375 C-544.62492218 -5.44662415 -544.62492218 -5.44662415 -543.28582764 -5.45593262 C-530.34164454 -5.51477671 -517.40970724 -5.22326512 -505.5 0.4375 C-503.20381014 1.51290024 -503.20381014 1.51290024 -501 2 C-497.81849039 0.58758288 -497.81849039 0.58758288 -495.92599487 -0.84291077 C-487.54836756 -5.87597835 -474.93042211 -4.24683617 -465.4296875 -4.16015625 C-463.85654067 -4.15386599 -462.28338929 -4.14863255 -460.7102356 -4.14439392 C-456.60089601 -4.13120555 -452.49171027 -4.10683158 -448.38244629 -4.07904053 C-441.80121561 -4.03562702 -435.21994511 -4.00600377 -428.63861465 -3.9829998 C-426.35991752 -3.97290102 -424.0813517 -3.95584463 -421.80270386 -3.93800354 C-415.16525106 -3.89956407 -408.63279507 -3.98327093 -402.03527832 -4.76499939 C-378.39698712 -7.49436215 -353.70671175 -4.09651273 -334 10 C-334 10.66 -334 11.32 -334 12 C-333.40058594 12.268125 -332.80117188 12.53625 -332.18359375 12.8125 C-324.51025218 16.98548003 -320.5624361 26.4106842 -317.87890625 34.29296875 C-314.46593185 48.68813631 -317.50208233 61.80043949 -325.11328125 74.23046875 C-329.24638464 80.29748801 -333.55288432 84.24594781 -340.30078125 87.17578125 C-342.20157202 87.98316345 -342.20157202 87.98316345 -344 90 C-344.38894914 92.49192611 -344.38894914 92.49192611 -343 95 C-340.96025448 96.16826071 -338.86021638 96.9801533 -336.67578125 97.84765625 C-324.09504545 103.26563736 -316.46471241 111.61885578 -311 124 C-309.43003043 129.42177115 -308.32018977 134.89898563 -307.25 140.4375 C-306.81690491 142.60611382 -306.37867812 144.77353397 -305.93475342 146.93995667 C-305.53813911 148.88564527 -305.15584157 150.8342363 -304.77441406 152.78295898 C-304.11057622 155.54064852 -303.54401068 157.63948849 -302 160 C-299.02661642 161.72226072 -299.02661642 161.72226072 -295.5625 163.125 C-292.14179963 164.60029647 -289.10258613 165.93160925 -286 168 C-282.48797488 166.79271391 -282.48797488 166.79271391 -279 165 C-278.195625 164.608125 -277.39125 164.21625 -276.5625 163.8125 C-275.7890625 163.4103125 -275.7890625 163.4103125 -275 163 C-275 162.34 -275 161.68 -275 161 C-274.34 161 -273.68 161 -273 161 C-270.9515424 148.12199118 -270.72381512 135.51598475 -270.8125 122.5 C-270.82075978 120.36287543 -270.82872951 118.22574972 -270.83642578 116.08862305 C-270.90299032 101.70085867 -271.06693094 87.31291554 -271.32040405 72.92724609 C-271.35635844 70.87601731 -271.38996747 68.82474587 -271.42105103 66.7734375 C-271.06772532 50.14127553 -271.06772532 50.14127553 -274 34 C-276.94419863 31.82758159 -280.06946159 30.46134661 -283.4375 29.0625 C-288.26007862 26.94409608 -292.44893924 24.80123185 -295.9375 20.75 C-297.4273002 16.89404655 -297.14613589 13.93533373 -296 10 C-292.36515833 3.48757534 -285.0275242 0.50439181 -278.1875 -1.6875 C-268.67323256 -4.22343781 -259.31812025 -5.3099378 -249.48828125 -5.30078125 C-248.43577682 -5.30506638 -247.3832724 -5.3093515 -246.2988739 -5.31376648 C-244.08800978 -5.31946588 -241.87712692 -5.32004281 -239.66625977 -5.31567383 C-236.33771686 -5.31252386 -233.01007355 -5.33599534 -229.68164062 -5.36132812 C-194.73921557 -5.46474663 -194.73921557 -5.46474663 -183 4.5625 C-180.27935532 9.23860805 -179.8389873 13.6993765 -181 19 C-183.75973835 22.57334046 -187.0164191 24.18235088 -191.0625 26.0625 C-196.08688516 28.29428241 -196.08688516 28.29428241 -200 32 C-203.53972478 43.26136027 -202.16289931 56.99440695 -202.16796875 68.70703125 C-202.17119341 70.48475672 -202.17455833 72.26248195 -202.17805481 74.04020691 C-202.18400005 77.74564223 -202.18589944 81.45105439 -202.18530273 85.15649414 C-202.18520124 89.8559651 -202.1988618 94.55528458 -202.21607494 99.25471973 C-202.22730453 102.92092036 -202.22921863 106.58708557 -202.22869301 110.25330162 C-202.22985637 111.98368541 -202.23418305 113.71407062 -202.24202538 115.44443703 C-202.27773566 124.13438064 -202.10191419 132.73500001 -201.1730957 141.3815918 C-201.10389766 142.07704259 -201.03469961 142.77249338 -200.96340466 143.48901844 C-200.25920972 149.26082466 -198.70613719 152.6647622 -194.125 156.25 C-185.52917839 160.70173077 -174.02015455 159.55264237 -165 157 C-162.22382077 155.80433734 -159.59754325 154.49959541 -156.9609375 153.0234375 C-155 152 -155 152 -153 152 C-152.73058594 151.43410156 -152.46117187 150.86820313 -152.18359375 150.28515625 C-150.94483535 147.89349399 -149.52596571 145.69786561 -148.0625 143.4375 C-145.30080749 138.917151 -143.89018553 134.71489566 -142.8359375 129.54296875 C-141.74238852 126.21633143 -140.59710434 124.37108377 -138 122 C-134.50390625 121.72265625 -134.50390625 121.72265625 -130.5625 122.0625 C-125.55358169 122.45084425 -125.55358169 122.45084425 -120.9765625 120.71875 C-119.49837351 118.90896629 -119.49837351 118.90896629 -118 116 C-114.88111322 114.44055661 -112.4545855 114.71683725 -109 115 C-106.31581395 116.06943902 -104.40646109 117.31547724 -102 119 C-101.67 119.99 -101.34 120.98 -101 122 C-100.34 122 -99.68 122 -99 122 C-97.72093154 123.72043716 -96.52789009 125.50508068 -95.375 127.3125 C-94.65828125 128.405625 -93.9415625 129.49875 -93.203125 130.625 C-91.81568012 132.74868972 -90.43092791 134.87409473 -89.046875 137 C-82.31855078 146.84632812 -74.25774092 152.2785873 -63 156 C-61.7625 156.4125 -60.525 156.825 -59.25 157.25 C-49.12091175 159.5009085 -39.30649816 158.51323982 -30 154 C-26.8894458 152.38144216 -26.8894458 152.38144216 -26.3828125 150.01171875 C-25.98313574 146.40857218 -25.75552899 143.71711496 -26.9375 140.25 C-32.37150111 134.32199879 -39.62074472 131.82575573 -47.125 129.5 C-48.99503291 128.89527676 -50.86482456 128.28980695 -52.734375 127.68359375 C-54.48947277 127.12205016 -56.24467212 126.56082387 -58 126 C-70.08784976 122.12026297 -82.22301789 117.30961043 -92 109 C-92.680625 108.42378906 -93.36125 107.84757812 -94.0625 107.25390625 C-106.92272512 96.02713714 -117.9254821 82.8980915 -119.8515625 65.28515625 C-120.67092172 47.15144301 -115.05046055 31.6320835 -103 18 C-102.34 18 -101.68 18 -101 18 C-101 17.34 -101 16.68 -101 16 C-72.16100151 -8.66654765 -35.36326245 -12.1404586 0 0 Z M-511.5625 29.4921875 C-518.41130823 37.36016362 -518.15581227 46.87361493 -518.12939453 56.80175781 C-518.13114685 57.63075089 -518.13289917 58.45974396 -518.13470459 59.31385803 C-518.13906915 62.02696897 -518.13620316 64.74001351 -518.1328125 67.453125 C-518.13348734 69.3596803 -518.13445887 71.26623552 -518.13571167 73.17279053 C-518.13718157 77.16028669 -518.13505785 81.14776037 -518.13037109 85.13525391 C-518.12468982 90.2129967 -518.12794718 95.29068645 -518.13394356 100.36842728 C-518.13758162 104.30469146 -518.1363955 108.24094337 -518.13381577 112.17720795 C-518.13315464 114.04765581 -518.13394602 115.91810483 -518.13629532 117.78855133 C-519.21078669 137.09029838 -519.21078669 137.09029838 -514 155 C-509.28044241 159.61467853 -504.72318727 163 -498 163 C-492.99341504 160.39240367 -490.00954689 157.24979488 -488 152 C-486.22209248 144.71945715 -485.61704502 137.42555255 -485.3828125 129.95703125 C-485.34527863 128.89716507 -485.30774475 127.83729889 -485.26907349 126.74531555 C-484.84142891 113.21659731 -484.84873357 99.6817211 -484.86962891 86.14770508 C-484.87539357 82.39758506 -484.87198425 78.64753562 -484.86605644 74.89741802 C-484.86241873 71.95202616 -484.86360291 69.0066507 -484.86618423 66.06125832 C-484.86684111 64.67842411 -484.86606964 63.29558831 -484.86370468 61.91275597 C-483.78731111 44.16357637 -483.78731111 44.16357637 -490.390625 28.5390625 C-498.43600796 21.50951072 -503.98594784 22.25658019 -511.5625 29.4921875 Z M-418 31 C-418.23055691 33.12388952 -418.39611408 35.25488141 -418.53515625 37.38671875 C-418.57813339 38.04017776 -418.62111053 38.69363678 -418.66539001 39.36689758 C-418.75585871 40.7614603 -418.84396434 42.15617795 -418.92993164 43.55102539 C-419.0591881 45.63412541 -419.19790343 47.71642534 -419.33789062 49.79882812 C-421.34688736 65.09721853 -421.34688736 65.09721853 -418 79 C-412.19791465 81.10984922 -405.32212829 79.80679791 -399.75 77.5 C-395.07405333 74.94269583 -392.84164939 70.88471813 -391 66 C-388.76830662 55.51951589 -388.73407307 43.19399934 -393.8125 33.5625 C-396.92679821 29.9143221 -400.22271983 27.7025412 -405 27 C-410.38477968 26.60837966 -414.06420251 27.06420251 -418 31 Z "
        fill="#050505" transform="translate(646,36)" />
    <path
        d="M0 0 C7.71131857 -0.06237474 14.165407 0.43039242 20.70507812 5.04663086 C21.36507812 5.70663086 22.02507812 6.36663086 22.70507812 7.04663086 C23.38570313 6.26288086 24.06632812 5.47913086 24.76757812 4.67163086 C30.7130493 -0.64134338 37.60549248 -0.2678635 45.20507812 -0.20336914 C46.11644531 -0.21110352 47.0278125 -0.21883789 47.96679688 -0.22680664 C53.24216317 -0.21158192 57.77331786 0.09988338 62.70507812 2.04663086 C64.86334974 5.28403828 65.43828144 6.28896389 64.70507812 10.04663086 C63.71685059 10.56644531 62.72862305 11.08625977 61.71044922 11.62182617 C58.61516564 13.63665896 58.61516564 13.63665896 58.17071533 15.98571777 C58.0101359 18.47847149 58.03090515 20.90953016 58.11914062 23.40600586 C58.13187515 24.76257294 58.13187515 24.76257294 58.14486694 26.14654541 C58.17841728 29.03112643 58.25369737 31.91289707 58.33007812 34.79663086 C58.36017572 36.75362169 58.38755189 38.71065641 58.41210938 40.66772461 C58.47821381 45.46177388 58.58174526 50.25372617 58.70507812 55.04663086 C60.28802594 55.10100693 61.87152068 55.13959357 63.45507812 55.17163086 C64.77765625 55.20643555 64.77765625 55.20643555 66.12695312 55.24194336 C68.86228752 55.03472106 70.40714415 54.51479067 72.70507812 53.04663086 C74.25030842 50.89117246 74.25030842 50.89117246 75.45507812 48.42163086 C75.88304687 47.60436523 76.31101562 46.78709961 76.75195312 45.94506836 C77.06648437 45.31858398 77.38101563 44.69209961 77.70507812 44.04663086 C80.45507812 43.67163086 80.45507812 43.67163086 83.70507812 44.04663086 C86.56525869 47.20788307 87.63896615 49.15411915 87.95507812 53.42163086 C87.87257813 54.28788086 87.79007813 55.15413086 87.70507812 56.04663086 C91.01118706 52.74052192 92.66218786 47.24137963 94.70507812 43.04663086 C95.21627197 41.99741455 95.21627197 41.99741455 95.73779297 40.92700195 C96.81781469 38.69961077 97.88788296 36.46769291 98.95507812 34.23413086 C99.29611572 33.5296582 99.63715332 32.82518555 99.98852539 32.09936523 C103.03783268 25.66572858 104.74666298 19.52082751 105.51757812 12.42163086 C106.12579405 8.41293496 106.57051 6.2586776 108.76757812 2.79663086 C113.73922995 -0.16520427 118.33271799 -0.40959224 123.95507812 0.67163086 C127.28088235 2.33453297 129.24715806 4.26530026 131.70507812 7.04663086 C132.40632812 7.83038086 133.10757813 8.61413086 133.83007812 9.42163086 C135.61312586 11.91789768 136.7297936 14.31927475 137.85742188 17.15991211 C139.09512953 19.91480978 140.74159643 22.35735039 142.42382812 24.85913086 C144.14616138 27.79969982 145.40284551 30.90567126 146.70507812 34.04663086 C147.86270113 36.75889076 149.03355141 39.465353 150.20507812 42.17163086 C150.50027344 42.8612793 150.79546875 43.55092773 151.09960938 44.26147461 C152.74121894 48.0436852 154.57882782 51.507202 156.70507812 55.04663086 C156.70507812 55.70663086 156.70507812 56.36663086 156.70507812 57.04663086 C157.67445313 57.35600586 158.64382813 57.66538086 159.64257812 57.98413086 C162.70507812 59.04663086 162.70507812 59.04663086 163.70507812 60.04663086 C164.01757812 62.35913086 164.01757812 62.35913086 163.70507812 65.04663086 C161.28970444 68.15211131 159.5161368 69.36058184 155.70507812 70.04663086 C151.39550272 70.2733303 147.0825158 70.23178195 142.76757812 70.23413086 C141.58744141 70.24637695 140.40730469 70.25862305 139.19140625 70.27124023 C138.05251953 70.27317383 136.91363281 70.27510742 135.74023438 70.27709961 C134.18381226 70.28326294 134.18381226 70.28326294 132.59594727 70.28955078 C128.44176551 69.94047462 125.66383429 69.00538703 122.70507812 66.04663086 C122.33007812 63.60913086 122.33007812 63.60913086 122.70507812 61.04663086 C124.70507812 59.35913086 124.70507812 59.35913086 126.70507812 58.04663086 C126.70507812 57.38663086 126.70507812 56.72663086 126.70507812 56.04663086 C124.40854113 54.89836236 123.12194645 54.93101911 120.57226562 54.94897461 C119.76660156 54.95219727 118.9609375 54.95541992 118.13085938 54.95874023 C117.28910156 54.96711914 116.44734375 54.97549805 115.58007812 54.98413086 C114.30583984 54.99089844 114.30583984 54.99089844 113.00585938 54.99780273 C110.90556904 55.00960212 108.80531482 55.0275378 106.70507812 55.04663086 C106.70507812 56.03663086 106.70507812 57.02663086 106.70507812 58.04663086 C107.69507813 58.37663086 108.68507813 58.70663086 109.70507812 59.04663086 C110.45507812 61.79663086 110.45507812 61.79663086 110.70507812 65.04663086 C108.86365894 67.39602775 107.36508873 68.71662556 104.70507812 70.04663086 C101.77861417 70.14573422 98.88113055 70.18552035 95.95507812 70.17163086 C94.75625 70.17743164 94.75625 70.17743164 93.53320312 70.18334961 C89.12838454 70.17610484 85.05584124 69.79912134 80.70507812 69.04663086 C80.37507812 69.37663086 80.04507813 69.70663086 79.70507812 70.04663086 C78.12420504 70.12096788 76.53994701 70.12477494 74.95751953 70.10009766 C73.94621979 70.08645676 72.93492004 70.07281586 71.89297485 70.0587616 C70.79198456 70.03800064 69.69099426 70.01723969 68.55664062 69.99584961 C67.4331723 69.97698196 66.30970398 69.95811432 65.15219116 69.93867493 C62.76970613 69.89670306 60.38726863 69.85195706 58.00488281 69.8046875 C54.3529618 69.73457023 50.70102567 69.68020027 47.04882812 69.62670898 C44.73891424 69.58405595 42.4290174 69.54046708 40.11914062 69.49584961 C39.02219879 69.48116135 37.92525696 69.46647308 36.79507446 69.45133972 C35.7774704 69.42824234 34.75986633 69.40514496 33.71142578 69.38134766 C32.8150943 69.36500778 31.91876282 69.34866791 30.99526978 69.33183289 C28.70507812 69.04663086 28.70507812 69.04663086 25.70507812 67.04663086 C25.14257812 64.23413086 25.14257812 64.23413086 25.70507812 61.04663086 C26.69386963 60.34497803 27.68266113 59.6433252 28.70141602 58.92041016 C30.66907238 57.35780907 31.57584536 56.51806401 32.24606323 54.07315063 C32.41492413 51.65523298 32.40616219 49.30122386 32.32617188 46.87866211 C32.32005386 46.0026384 32.31393585 45.12661469 32.30763245 44.2240448 C32.28075349 41.43455683 32.2116168 38.64786017 32.14257812 35.85913086 C32.12104828 33.97178943 32.10213902 32.08441617 32.0859375 30.19702148 C32.49703962 21.8683702 32.49703962 21.8683702 30.70507812 14.04663086 C29.71507812 14.04663086 28.72507812 14.04663086 27.70507812 14.04663086 C27.87007813 14.72725586 28.03507812 15.40788086 28.20507812 16.10913086 C29.38053651 23.01494888 28.94021886 29.41452717 25.20507812 35.48413086 C24.71007812 35.99975586 24.21507812 36.51538086 23.70507812 37.04663086 C23.04507813 37.04663086 22.38507813 37.04663086 21.70507812 37.04663086 C21.42664063 37.94381836 21.42664063 37.94381836 21.14257812 38.85913086 C18.59132385 42.74147432 14.35690216 43.62407122 10.01757812 44.73413086 C4.91663752 45.21535167 -0.17558449 45.12118432 -5.29492188 45.04663086 C-5.35944466 52.62358267 -5.35944466 52.62358267 -1.66992188 58.85913086 C-0.88617188 59.58100586 -0.10242188 60.30288086 0.70507812 61.04663086 C1.01757812 64.17163086 1.01757812 64.17163086 -0.29492188 67.04663086 C-6.25901595 69.8815814 -11.31320304 70.51564198 -17.85742188 70.42163086 C-18.66888672 70.43323242 -19.48035156 70.44483398 -20.31640625 70.45678711 C-26.48504747 70.42691475 -31.75162362 69.58992912 -36.29492188 65.04663086 C-36.07362381 62.16975605 -35.66013694 60.50711942 -33.85742188 58.23413086 C-32.29492188 57.04663086 -32.29492188 57.04663086 -30.29492188 57.04663086 C-30.29492188 42.52663086 -30.29492188 28.00663086 -30.29492188 13.04663086 C-32.27492188 12.38663086 -34.25492187 11.72663086 -36.29492188 11.04663086 C-38.29492188 9.04663086 -38.29492188 9.04663086 -38.66992188 6.60913086 C-38.29492188 4.04663086 -38.29492188 4.04663086 -36.69555664 2.41845703 C-33.52160889 0.60472649 -31.15695375 0.61398196 -27.50976562 0.53491211 C-26.85343643 0.51696091 -26.19710724 0.4990097 -25.52088928 0.48051453 C-23.42480013 0.42656004 -21.32892639 0.39268459 -19.23242188 0.35913086 C-17.85022879 0.32591675 -16.46806582 0.29142336 -15.0859375 0.25561523 C-10.05780684 0.1321968 -5.02908208 0.07117329 0 0 Z M-5.29492188 12.04663086 C-5.29492188 18.64663086 -5.29492188 25.24663086 -5.29492188 32.04663086 C0.26810504 32.63314067 0.26810504 32.63314067 2.51757812 30.73413086 C5.12734409 27.02551607 5.00739024 23.43015656 4.70507812 19.04663086 C3.05368507 15.50793146 1.98902583 14.23592933 -1.29492188 12.04663086 C-2.61492187 12.04663086 -3.93492187 12.04663086 -5.29492188 12.04663086 Z M114.70507812 29.04663086 C114.21007812 30.11913086 113.71507812 31.19163086 113.20507812 32.29663086 C112.92664063 32.89991211 112.64820313 33.50319336 112.36132812 34.12475586 C111.48964889 36.33905922 111.48964889 36.33905922 111.70507812 40.04663086 C115.33507812 40.04663086 118.96507812 40.04663086 122.70507812 40.04663086 C121.48818269 36.0215152 120.2105405 32.45405969 117.70507812 29.04663086 C116.71507812 29.04663086 115.72507812 29.04663086 114.70507812 29.04663086 Z "
        fill="#0E0D0F" transform="translate(454.294921875,249.953369140625)" />
    <path
        d="M0 0 C0.96465179 -0.00960754 1.92930359 -0.01921509 2.92318726 -0.02911377 C3.96383331 -0.03336365 5.00447937 -0.03761353 6.07666016 -0.04199219 C7.14816315 -0.04769226 8.21966614 -0.05339233 9.32363892 -0.05926514 C11.59156303 -0.06871456 13.85950088 -0.07524889 16.12744141 -0.07910156 C19.59513303 -0.08880955 23.06223259 -0.11983502 26.52978516 -0.15136719 C28.73290664 -0.15789709 30.93603235 -0.16314761 33.13916016 -0.16699219 C34.17575775 -0.17933899 35.21235535 -0.19168579 36.28036499 -0.20440674 C45.26809628 -0.17662683 45.26809628 -0.17662683 49.24072266 3.16113281 C50.82275391 5.09863281 50.82275391 5.09863281 52.05322266 7.16113281 C52.47216797 7.84175781 52.89111328 8.52238281 53.32275391 9.22363281 C54.24072266 11.16113281 54.24072266 11.16113281 54.24072266 14.16113281 C54.90072266 14.16113281 55.56072266 14.16113281 56.24072266 14.16113281 C56.24072266 13.50113281 56.24072266 12.84113281 56.24072266 12.16113281 C56.90072266 12.16113281 57.56072266 12.16113281 58.24072266 12.16113281 C58.24072266 11.50113281 58.24072266 10.84113281 58.24072266 10.16113281 C58.90072266 10.16113281 59.56072266 10.16113281 60.24072266 10.16113281 C60.24072266 9.50113281 60.24072266 8.84113281 60.24072266 8.16113281 C72.22209791 1.03949294 82.89729329 -1.63242916 96.86572266 0.78613281 C106.48839677 3.3568111 112.73144203 8.87781976 118.38916016 16.93457031 C123.19459816 25.30860363 124.5484771 34.82623387 122.42822266 44.22363281 C121.37772478 48.04018984 119.88849219 51.56599929 118.24072266 55.16113281 C117.58072266 55.16113281 116.92072266 55.16113281 116.24072266 55.16113281 C116.24072266 55.82113281 116.24072266 56.48113281 116.24072266 57.16113281 C115.58072266 57.16113281 114.92072266 57.16113281 114.24072266 57.16113281 C113.86947266 58.05638672 113.86947266 58.05638672 113.49072266 58.96972656 C110.52195129 64.17435387 104.1053244 67.09916631 98.61572266 69.03613281 C87.4873638 71.94822672 75.41156252 71.26860564 65.39697266 65.53222656 C56.94911526 59.91167628 51.85475389 52.99657453 49.24072266 43.16113281 C49.02043427 40.36205248 49.04977405 37.59148505 49.11572266 34.78613281 C49.12474609 34.05007813 49.13376953 33.31402344 49.14306641 32.55566406 C49.16642121 30.75734401 49.2022843 28.9591937 49.24072266 27.16113281 C48.04447266 27.16113281 46.84822266 27.16113281 45.61572266 27.16113281 C42.69561804 26.8303599 41.55296955 26.48238018 39.47900391 24.34863281 C38.46562549 22.91918215 37.49170433 21.46070225 36.56494141 19.97363281 C35.28472201 17.85387319 35.28472201 17.85387319 32.24072266 17.16113281 C32.24072266 29.70113281 32.24072266 42.24113281 32.24072266 55.16113281 C33.89072266 55.82113281 35.54072266 56.48113281 37.24072266 57.16113281 C38.23072266 57.82113281 39.22072266 58.48113281 40.24072266 59.16113281 C40.74072266 62.03613281 40.74072266 62.03613281 40.24072266 65.16113281 C35.92686301 69.59482189 32.10389292 70.27083658 26.13525391 70.36425781 C24.10796123 70.38549991 22.08060086 70.40091288 20.05322266 70.41113281 C19.0496875 70.43175781 18.04615234 70.45238281 17.01220703 70.47363281 C10.19505531 70.50911571 2.96832941 70.26686261 -2.50219727 65.70898438 C-3.75927734 64.16113281 -3.75927734 64.16113281 -3.82177734 61.72363281 C-2.34296898 58.157095 -0.00119052 57.11978869 3.24072266 55.16113281 C8.0450385 45.55250112 5.33675942 28.67182292 5.24072266 18.16113281 C2.05615613 19.54601784 1.15585922 20.27664138 -1.00927734 23.22363281 C-3.06377096 25.81242198 -4.55585252 26.71050599 -7.82177734 27.28613281 C-11.75927734 27.16113281 -11.75927734 27.16113281 -14.25927734 25.72363281 C-16.36350864 22.12890434 -16.44147898 19.15883438 -15.75927734 15.16113281 C-14.17338651 9.77234049 -12.41169897 4.6129295 -7.75927734 1.16113281 C-4.87136826 0.19849645 -3.0039921 0.02416681 0 0 Z M75.24072266 20.16113281 C73.57828939 27.5449273 75.35730911 34.7056214 77.86572266 41.66113281 C78.10081543 42.33112305 78.3359082 43.00111328 78.578125 43.69140625 C80.51757975 48.61130104 82.88896034 51.14618637 87.24072266 54.16113281 C90.37095983 54.99596607 90.37095983 54.99596607 93.24072266 54.16113281 C96.17828467 51.2235708 96.44770129 48.39611621 96.55322266 44.41113281 C96.24633434 35.02314016 93.75509177 25.88124957 88.24072266 18.16113281 C83.10712563 14.56761489 79.06180664 15.42045185 75.24072266 20.16113281 Z "
        fill="#0C0C0D" transform="translate(277.75927734375,249.8388671875)" />
    <path
        d="M0 0 C7.1262001 5.46960849 10.87647056 14.11637361 14.88671875 21.93359375 C15.23234863 22.60132813 15.57797852 23.2690625 15.93408203 23.95703125 C19.11515827 30.12713024 22.19834188 36.32572638 24.98828125 42.68359375 C25.33753662 43.46613525 25.68679199 44.24867676 26.04663086 45.05493164 C26.71776818 46.56766145 27.37301637 48.08756881 28.01000977 49.61499023 C29.80992811 53.72981895 29.80992811 53.72981895 33.5 56.03125 C36.07621631 56.19583449 36.07621631 56.19583449 37.88671875 53.93359375 C38.23198683 52.08120092 38.23198683 52.08120092 38.24072266 49.94628906 C38.26639313 49.12493469 38.2920636 48.30358032 38.31851196 47.45733643 C38.33328583 46.56778259 38.34805969 45.67822876 38.36328125 44.76171875 C38.37942474 43.8465448 38.39556824 42.93137085 38.41220093 41.98846436 C38.43989051 40.04837632 38.46133139 38.10819069 38.47705078 36.16796875 C38.51143825 33.20774078 38.59916309 30.25200832 38.6875 27.29296875 C38.70775851 25.40758494 38.72478929 23.52216313 38.73828125 21.63671875 C38.77329742 20.75526184 38.8083136 19.87380493 38.84439087 18.96563721 C38.81743953 15.12425974 38.76661278 12.85966578 36.04803467 9.99841309 C34.05243044 8.49237348 32.0622838 7.16220535 29.88671875 5.93359375 C30.96072983 3.01842083 31.66482051 1.15549199 33.88671875 -1.06640625 C36.93543163 -1.33770523 39.89845564 -1.48891577 42.953125 -1.55078125 C43.86118393 -1.57489075 44.76924286 -1.59900024 45.70481873 -1.62384033 C47.63227972 -1.67221249 49.55987153 -1.71558762 51.48754883 -1.75439453 C54.4135345 -1.81565909 57.33830625 -1.8988799 60.26367188 -1.984375 C62.13929175 -2.02868343 64.01494286 -2.07169235 65.890625 -2.11328125 C66.75659805 -2.13920349 67.62257111 -2.16512573 68.51478577 -2.1918335 C75.76630548 -2.31113375 83.42624122 -1.94350398 89.26171875 2.80859375 C89.88820312 3.30101562 90.5146875 3.7934375 91.16015625 4.30078125 C95.66094945 8.55718749 97.76315528 13.00557594 97.9609375 19.29296875 C97.61355559 25.68479597 95.91308513 30.90312119 91.88671875 35.93359375 C83.31168436 43.30416838 73.68870378 43.20326883 62.88671875 42.93359375 C63.38171875 48.87359375 63.38171875 48.87359375 63.88671875 54.93359375 C65.53671875 55.59359375 67.18671875 56.25359375 68.88671875 56.93359375 C69.88671875 59.87109375 69.88671875 59.87109375 69.88671875 62.93359375 C67.8424782 66.30057819 64.54131425 66.94475168 60.88671875 67.93359375 C57.7569607 68.21496846 54.65222574 68.21322117 51.51171875 68.18359375 C50.69960937 68.19132812 49.8875 68.1990625 49.05078125 68.20703125 C45.03093116 68.19414712 41.52422136 67.93583537 37.66015625 66.79296875 C33.29415747 65.79864191 32.02639128 66.49627582 27.88671875 67.93359375 C23.69888272 68.24852502 19.52198908 68.21259389 15.32421875 68.18359375 C14.20080078 68.19132812 13.07738281 68.1990625 11.91992188 68.20703125 C10.83517578 68.20445312 9.75042969 68.201875 8.6328125 68.19921875 C7.64982178 68.19696289 6.66683105 68.19470703 5.65405273 68.19238281 C1.57047924 67.81050474 -1.20317541 66.84369959 -4.11328125 63.93359375 C-4.23828125 60.80859375 -4.23828125 60.80859375 -4.11328125 57.93359375 C-2.79328125 57.27359375 -1.47328125 56.61359375 -0.11328125 55.93359375 C-0.11328125 55.27359375 -0.11328125 54.61359375 -0.11328125 53.93359375 C-3.53476983 52.22284946 -7.34266808 52.7069412 -11.11328125 52.68359375 C-11.94601563 52.66296875 -12.77875 52.64234375 -13.63671875 52.62109375 C-14.43335938 52.6159375 -15.23 52.61078125 -16.05078125 52.60546875 C-16.78167969 52.59612305 -17.51257813 52.58677734 -18.265625 52.57714844 C-18.87535156 52.69477539 -19.48507813 52.81240234 -20.11328125 52.93359375 C-20.77328125 53.92359375 -21.43328125 54.91359375 -22.11328125 55.93359375 C-20.13328125 56.59359375 -18.15328125 57.25359375 -16.11328125 57.93359375 C-15.86328125 60.74609375 -15.86328125 60.74609375 -16.11328125 63.93359375 C-20.68103666 68.50134916 -25.95996805 68.1452579 -31.98828125 68.18359375 C-33.19291016 68.21453125 -33.19291016 68.21453125 -34.421875 68.24609375 C-39.129351 68.27711501 -42.32379073 68.05435065 -46.11328125 64.93359375 C-47.11328125 62.43359375 -47.11328125 62.43359375 -47.11328125 59.93359375 C-45.59713133 57.74359942 -44.03497592 56.89160394 -41.6875 55.6328125 C-35.37501924 51.46600047 -32.61821533 43.15057583 -30.046875 36.30078125 C-29.17219299 34.08296828 -28.16965754 32.03623674 -27.05078125 29.93359375 C-23.74714872 23.45588291 -22.18726038 16.78940237 -21.17578125 9.62109375 C-20.46543222 5.05372564 -19.76799391 2.05084866 -16.11328125 -1.06640625 C-10.8102774 -2.83783519 -5.00235913 -2.52429583 0 0 Z M63.88671875 9.93359375 C62.68175966 10.91766686 62.68175966 10.91766686 62.77319336 12.79125977 C62.77843018 13.58201904 62.78366699 14.37277832 62.7890625 15.1875 C62.79228516 16.04150391 62.79550781 16.89550781 62.79882812 17.77539062 C62.80720703 18.67322266 62.81558594 19.57105469 62.82421875 20.49609375 C62.82873047 21.39779297 62.83324219 22.29949219 62.83789062 23.22851562 C62.8497165 25.46360689 62.86619655 27.69856812 62.88671875 29.93359375 C67.23690057 30.15295843 67.23690057 30.15295843 71.19921875 28.62109375 C73.7129432 26.1073693 73.87764795 24.05604954 74.13671875 20.55859375 C73.86956453 16.68485755 73.23166434 14.97333803 70.88671875 11.93359375 C67.93294377 9.56379362 67.93294377 9.56379362 63.88671875 9.93359375 Z M-11.11328125 25.93359375 C-11.78996123 27.17820158 -12.45422844 28.42956271 -13.11328125 29.68359375 C-13.48453125 30.3796875 -13.85578125 31.07578125 -14.23828125 31.79296875 C-15.36552774 34.16527132 -15.36552774 34.16527132 -15.11328125 37.93359375 C-11.48328125 37.93359375 -7.85328125 37.93359375 -4.11328125 37.93359375 C-5.43012606 33.32463692 -7.2652687 29.7921914 -10.11328125 25.93359375 C-10.44328125 25.93359375 -10.77328125 25.93359375 -11.11328125 25.93359375 Z "
        fill="#0D0D0E" transform="translate(151.11328125,252.06640625)" />
    <path
        d="M0 0 C1.38680214 -0.00472824 1.38680214 -0.00472824 2.80162048 -0.009552 C4.2892263 -0.00651566 4.2892263 -0.00651566 5.80688477 -0.00341797 C6.83258072 -0.00437469 7.85827667 -0.00533142 8.91505432 -0.00631714 C11.08285585 -0.00699721 13.25065942 -0.00515498 15.41845703 -0.00097656 C18.73222444 0.00436862 22.04585598 -0.00092462 25.35961914 -0.00732422 C27.46704131 -0.0066633 29.5744634 -0.00538185 31.68188477 -0.00341797 C32.67159775 -0.0054422 33.66131073 -0.00746643 34.68101501 -0.009552 C36.07254539 -0.00482376 36.07254539 -0.00482376 37.4921875 0 C38.30396957 0.00079559 39.11575165 0.00159119 39.95213318 0.00241089 C42.48280897 0.1386555 44.8403246 0.57671418 47.31079102 1.12939453 C47.31079102 1.78939453 47.31079102 2.44939453 47.31079102 3.12939453 C47.97079102 3.12939453 48.63079102 3.12939453 49.31079102 3.12939453 C52.69794238 9.02959368 54.64259544 14.2326026 54.31079102 21.12939453 C52.97869074 24.2376285 52.32075719 25.62441145 49.31079102 27.12939453 C46.18976826 27.26797276 43.31085348 27.01396002 40.31079102 26.12939453 C36.31079102 21.54402868 36.31079102 21.54402868 36.31079102 18.12939453 C34.99079102 18.12939453 33.67079102 18.12939453 32.31079102 18.12939453 C32.16233544 23.18297467 32.05352916 28.23528336 31.98120117 33.29052734 C31.95104941 35.00950225 31.91011971 36.72832355 31.8581543 38.44677734 C31.78525921 40.91949317 31.75132201 43.39017447 31.72485352 45.86376953 C31.6938858 46.63058044 31.66291809 47.39739136 31.63101196 48.18743896 C31.56435747 50.64924347 31.56435747 50.64924347 32.31079102 54.12939453 C35.18664257 56.47747864 35.18664257 56.47747864 38.31079102 58.12939453 C39.49829102 61.62939453 39.49829102 61.62939453 39.31079102 65.12939453 C35.90698998 68.82494994 32.78300839 69.96496205 27.88818359 70.29052734 C24.96643413 70.33625861 22.04536835 70.36466446 19.12329102 70.37939453 C18.11975586 70.40001953 17.1162207 70.42064453 16.08227539 70.44189453 C8.95702669 70.47898106 1.74469521 70.07274098 -3.87670898 65.25439453 C-4.68920898 63.12939453 -4.68920898 63.12939453 -4.18920898 60.44189453 C-2.68920898 58.12939453 -2.68920898 58.12939453 -0.09545898 57.48486328 C0.69860352 57.36755859 1.49266602 57.25025391 2.31079102 57.12939453 C4.11035084 48.30404478 4.56270084 39.8704676 4.43579102 30.87939453 C4.42676758 29.64576172 4.41774414 28.41212891 4.40844727 27.14111328 C4.38515952 24.13699429 4.35245858 21.13330511 4.31079102 18.12939453 C3.65079102 18.12939453 2.99079102 18.12939453 2.31079102 18.12939453 C1.23092064 19.41064614 0.19604733 20.73006699 -0.81420898 22.06689453 C-3.32628427 25.01950076 -4.99964043 26.71993053 -8.87670898 27.37939453 C-12.68920898 27.12939453 -12.68920898 27.12939453 -15.18920898 25.75439453 C-17.44594987 21.80509798 -17.50267466 18.56898689 -16.68920898 14.12939453 C-14.87378945 9.33446965 -12.76357118 4.4090046 -8.68920898 1.12939453 C-5.74762292 0.19843704 -3.07467066 0.00301631 0 0 Z "
        fill="#0D0C0D" transform="translate(62.689208984375,249.87060546875)" />
    <path
        d="M0 0 C1.00675781 -0.01224609 2.01351562 -0.02449219 3.05078125 -0.03710938 C8.59612972 -0.04801111 13.28113952 0.25910238 18.5 2.1875 C19.5 3.1875 19.5 3.1875 19.59765625 6.12890625 C19.58605469 7.32386719 19.57445312 8.51882813 19.5625 9.75 C19.55347656 10.94753906 19.54445313 12.14507812 19.53515625 13.37890625 C19.52355469 14.30574219 19.51195312 15.23257812 19.5 16.1875 C20.82 16.8475 22.14 17.5075 23.5 18.1875 C24.82 16.5375 26.14 14.8875 27.5 13.1875 C27.17 12.65125 26.84 12.115 26.5 11.5625 C25.24045833 8.57108852 25.15047042 6.40317216 25.5 3.1875 C30.68173417 -0.26698945 35.96393277 0.00521249 42 0 C43.11955078 -0.01836914 43.11955078 -0.01836914 44.26171875 -0.03710938 C48.45601805 -0.04824468 51.68955842 0.21632926 55.5 2.1875 C56.5 3.1875 56.5 3.1875 56.8125 6.0625 C56.5 9.1875 56.5 9.1875 55 10.8125 C52.5 12.1875 52.5 12.1875 48.9375 13.625 C44.7467941 15.64945755 41.79851212 18.67575668 38.6875 22.0625 C38.21948975 22.56837646 37.75147949 23.07425293 37.26928711 23.59545898 C31.55988243 30.02485724 30.0172307 34.96249369 30.1875 43.3125 C30.18427734 44.11042969 30.18105469 44.90835938 30.17773438 45.73046875 C30.16632095 51.27273224 30.16632095 51.27273224 32.5 56.1875 C33.49 56.6825 33.49 56.6825 34.5 57.1875 C34.5 57.8475 34.5 58.5075 34.5 59.1875 C35.16 59.1875 35.82 59.1875 36.5 59.1875 C36.8125 62.5 36.8125 62.5 36.5 66.1875 C30.85345544 70.8929538 24.2162295 70.37018241 17.25 70.375 C15.87521484 70.39336914 15.87521484 70.39336914 14.47265625 70.41210938 C7.90888878 70.42615453 1.92047982 69.9832519 -4 66.875 C-5.5 65.1875 -5.5 65.1875 -5.9375 62.6875 C-5.43186544 59.79815968 -4.88078969 58.86287052 -2.5 57.1875 C-1.51 57.1875 -0.52 57.1875 0.5 57.1875 C1.95604798 52.81935606 1.84651015 48.57773051 1.9375 44 C2.00614258 42.61844727 2.00614258 42.61844727 2.07617188 41.20898438 C2.19284993 34.06118532 0.30613448 30.37579239 -4.5 25.1875 C-8.5 20.34539474 -8.5 20.34539474 -8.5 18.1875 C-9.056875 17.94 -9.61375 17.6925 -10.1875 17.4375 C-12.89870944 15.97198139 -15.09618256 14.11055395 -17.5 12.1875 C-18.81138904 11.47864106 -20.13777017 10.79293548 -21.5 10.1875 C-21.6875 6.8125 -21.6875 6.8125 -21.5 3.1875 C-15.29858342 -0.94677772 -7.21781533 0.00462088 0 0 Z "
        fill="#0E0D0F" transform="translate(626.5,249.8125)" />
    <path
        d="M0 0 C0.66 0 1.32 0 2 0 C2 12.54 2 25.08 2 38 C2.99 38.33 3.98 38.66 5 39 C4.01 39.495 4.01 39.495 3 40 C1.68 39.34 0.36 38.68 -1 38 C-0.67 25.46 -0.34 12.92 0 0 Z "
        fill="#6F6D71" transform="translate(308,267)" />
    <path
        d="M0 0 C6.27 0 12.54 0 19 0 C19 0.66 19 1.32 19 2 C30.55 2 42.1 2 54 2 C54 2.33 54 2.66 54 3 C40.45710928 4.27892391 27.28862225 4.22360695 13.75 3.125 C12.23043701 3.00741333 12.23043701 3.00741333 10.68017578 2.88745117 C9.25294189 2.76140503 9.25294189 2.76140503 7.796875 2.6328125 C6.94448242 2.55949707 6.09208984 2.48618164 5.21386719 2.41064453 C3 2 3 2 0 0 Z "
        fill="#6B6370" transform="translate(54,227)" />
    <path
        d="M0 0 C1.59811523 0.00676758 1.59811523 0.00676758 3.22851562 0.01367188 C5.83990291 0.02538213 8.45117124 0.04178276 11.0625 0.0625 C11.0625 0.3925 11.0625 0.7225 11.0625 1.0625 C1.4925 1.3925 -8.0775 1.7225 -17.9375 2.0625 C-17.9375 3.7125 -17.9375 5.3625 -17.9375 7.0625 C-18.5975 7.7225 -19.2575 8.3825 -19.9375 9.0625 C-18.2875 9.3925 -16.6375 9.7225 -14.9375 10.0625 C-14.6075 11.3825 -14.2775 12.7025 -13.9375 14.0625 C-16.5775 12.7425 -19.2175 11.4225 -21.9375 10.0625 C-22.125 6.6875 -22.125 6.6875 -21.9375 3.0625 C-15.58803468 -1.17047688 -7.36939233 -0.05946747 0 0 Z "
        fill="#5C5B5D" transform="translate(626.9375,249.9375)" />
    <path
        d="M0 0 C0.66 0.33 1.32 0.66 2 1 C0.576875 1.8971875 0.576875 1.8971875 -0.875 2.8125 C-4.13964197 4.81562526 -4.13964197 4.81562526 -6 8 C-6.66 8 -7.32 8 -8 8 C-8.2475 8.61875 -8.495 9.2375 -8.75 9.875 C-10.73550943 13.25036604 -13.39388839 13.7979628 -17 15 C-17 14.01 -17 13.02 -17 12 C-16.34 12 -15.68 12 -15 12 C-15 11.34 -15 10.68 -15 10 C-14.34 10 -13.68 10 -13 10 C-13 9.34 -13 8.68 -13 8 C-12.34 8 -11.68 8 -11 8 C-11 7.34 -11 6.68 -11 6 C-9.21385682 4.96953278 -7.42089982 3.95086764 -5.625 2.9375 C-4.62726563 2.36902344 -3.62953125 1.80054688 -2.6015625 1.21484375 C-1.74304688 0.81394531 -0.88453125 0.41304687 0 0 Z "
        fill="#434245" transform="translate(349,252)" />
    <path
        d="M0 0 C1.32 0.33 2.64 0.66 4 1 C3.02458497 4.14300397 2.05071008 4.97102281 -0.84375 6.625 C-6.04489625 8.7363564 -11.41621325 8.32116244 -16.9375 8.1875 C-18.00291016 8.17396484 -19.06832031 8.16042969 -20.16601562 8.14648438 C-22.77787588 8.11134724 -25.38866634 8.06215184 -28 8 C-28 7.67 -28 7.34 -28 7 C-26.081875 6.90912109 -26.081875 6.90912109 -24.125 6.81640625 C-22.4166589 6.73192784 -20.70832599 6.64728359 -19 6.5625 C-18.16082031 6.52318359 -17.32164063 6.48386719 -16.45703125 6.44335938 C-11.25986542 6.18148668 -6.15542847 5.7100648 -1 5 C-0.67 3.35 -0.34 1.7 0 0 Z "
        fill="#3F3C43" transform="translate(98,312)" />
    <path
        d="M0 0 C2.73480337 1.60870787 5.38408351 3.26405741 8 5.0625 C10.64315965 6.76954061 13.04622927 7.95749268 16 9 C12.53932584 11.1011236 12.53932584 11.1011236 10 10.625 C9.34 10.41875 8.68 10.2125 8 10 C6.68 10 5.36 10 4 10 C1.67960686 6.51941029 2 6.01857088 2 2 C1.34 2 0.68 2 0 2 C0 1.34 0 0.68 0 0 Z "
        fill="#272528" transform="translate(562,181)" />
    <path
        d="M0 0 C1.31967773 0.02618408 2.63935547 0.05236816 3.99902344 0.0793457 C4.70363708 0.08642044 5.40825073 0.09349518 6.13421631 0.1007843 C8.37670735 0.12869339 10.61666715 0.19141408 12.85839844 0.25512695 C14.38179978 0.28021484 15.90524041 0.30302717 17.42871094 0.32348633 C21.15609092 0.37850482 24.8819975 0.46474891 28.60839844 0.56762695 C28.60839844 0.89762695 28.60839844 1.22762695 28.60839844 1.56762695 C18.70839844 1.56762695 8.80839844 1.56762695 -1.39160156 1.56762695 C-1.06160156 2.55762695 -0.73160156 3.54762695 -0.39160156 4.56762695 C-2.04160156 4.56762695 -3.69160156 4.56762695 -5.39160156 4.56762695 C-5.72160156 5.55762695 -6.05160156 6.54762695 -6.39160156 7.56762695 C-6.72160156 6.90762695 -7.05160156 6.24762695 -7.39160156 5.56762695 C-5.18297362 2.0215521 -4.2103199 0.70464971 0 0 Z "
        fill="#3B3A3D" transform="translate(188.3916015625,250.432373046875)" />
    <path
        d="M0 0 C0.33 0 0.66 0 1 0 C2.62313275 6.69542258 2.32785743 12.50650295 0 19 C-1.5 21.4375 -1.5 21.4375 -3 23 C-3.66 23 -4.32 23 -5 23 C-4.67 21.35 -4.34 19.7 -4 18 C-3.01 18 -2.02 18 -1 18 C-0.505 9.09 -0.505 9.09 0 0 Z "
        fill="#525157" transform="translate(481,264)" />
    <path
        d="M0 0 C0.66 0 1.32 0 2 0 C1.67 0.99 1.34 1.98 1 3 C0.34 3 -0.32 3 -1 3 C-0.67 4.32 -0.34 5.64 0 7 C7.26 7.33 14.52 7.66 22 8 C22 8.33 22 8.66 22 9 C18.18751574 9.02887236 14.3750593 9.04675492 10.5625 9.0625 C9.47388672 9.07087891 8.38527344 9.07925781 7.26367188 9.08789062 C6.22919922 9.09111328 5.19472656 9.09433594 4.12890625 9.09765625 C2.69140015 9.10551147 2.69140015 9.10551147 1.22485352 9.11352539 C-1 9 -1 9 -2 8 C-2.1875 5.0625 -2.1875 5.0625 -2 2 C-1.34 1.34 -0.68 0.68 0 0 Z "
        fill="#363439" transform="translate(482,309)" />
    <path
        d="M0 0 C0 0.66 0 1.32 0 2 C0.66 2 1.32 2 2 2 C2 4.31 2 6.62 2 9 C-2 4.25 -2 4.25 -2 2 C-2.99 2 -3.98 2 -5 2 C-5.33 3.65 -5.66 5.3 -6 7 C-6.33 7 -6.66 7 -7 7 C-7 5.02 -7 3.04 -7 1 C-4.53721199 -0.231394 -2.7204945 -0.07159196 0 0 Z "
        fill="#4D4C55" transform="translate(574,277)" />
    <path
        d="M0 0 C0.66 0 1.32 0 2 0 C2.3125 2.75 2.3125 2.75 2 6 C-0.25 8.4375 -0.25 8.4375 -3 10 C-5.3125 9.75 -5.3125 9.75 -7 9 C-6.21625 8.2575 -5.4325 7.515 -4.625 6.75 C-2.43495469 4.45566682 -1.17268614 2.87841142 0 0 Z "
        fill="#4F4E54" transform="translate(316,309)" />
    <path
        d="M0 0 C0.66 0.33 1.32 0.66 2 1 C0.6875 3.5 0.6875 3.5 -1 6 C-1.99 6 -2.98 6 -4 6 C-5.34789347 6.98028616 -6.68212715 7.97971135 -8 9 C-8.66 9 -9.32 9 -10 9 C-8.50521886 5.19510255 -6.30557786 3.33809165 -3 1 C-2.01 0.67 -1.02 0.34 0 0 Z "
        fill="#49484A" transform="translate(47,38)" />
    <path
        d="M0 0 C6.27 0 12.54 0 19 0 C19 0.66 19 1.32 19 2 C20.98 2 22.96 2 25 2 C25 2.33 25 2.66 25 3 C5.02167766 3.34778511 5.02167766 3.34778511 0 0 Z "
        fill="#5E5C5E" transform="translate(54,227)" />
    <path
        d="M0 0 C0.66 0 1.32 0 2 0 C2.6875 2.8125 2.6875 2.8125 3 6 C1.6875 7.875 1.6875 7.875 0 9 C-0.66 9 -1.32 9 -2 9 C-2.20140476 5.37471432 -1.85776765 3.13498292 0 0 Z "
        fill="#454446" transform="translate(218,309)" />
    <path
        d="M0 0 C0.66 0 1.32 0 2 0 C1.731875 0.61875 1.46375 1.2375 1.1875 1.875 C-0.4483787 6.17994393 -1.71271326 10.58031552 -3 15 C-3.33 15 -3.66 15 -4 15 C-4.29268781 9.34136895 -4.03522952 5.97777642 -1 1 C-0.67 0.67 -0.34 0.34 0 0 Z "
        fill="#5F5C61" transform="translate(564,252)" />
    <path
        d="M0 0 C0.66 0.33 1.32 0.66 2 1 C-0.73056995 5.22797927 -0.73056995 5.22797927 -3 7 C-6.06437568 7.52268615 -8.92228147 7.36208453 -12 7 C-12.33 5.68 -12.66 4.36 -13 3 C-12.484375 3.391875 -11.96875 3.78375 -11.4375 4.1875 C-8.79855022 5.34169146 -8.79855022 5.34169146 -5.375 3.75 C-2.02954627 2.23104218 -2.02954627 2.23104218 0 0 Z "
        fill="#5C5C5F" transform="translate(369,199)" />
    <path
        d="M0 0 C2 2 2 2 3 4 C3.99 4.33 4.98 4.66 6 5 C6 6.65 6 8.3 6 10 C4.68103535 9.07161713 3.37001311 8.13194268 2.0625 7.1875 C1.33160156 6.66542969 0.60070312 6.14335937 -0.15234375 5.60546875 C-2 4 -2 4 -3 1 C-2.01 0.67 -1.02 0.34 0 0 Z "
        fill="#434144" transform="translate(545,132)" />
    <path
        d="M0 0 C2.97851562 0.390625 2.97851562 0.390625 5.95703125 0.78125 C8.15471706 1.053233 8.15471706 1.053233 11 1 C10.34 1.66 9.68 2.32 9 3 C9.99 4.485 9.99 4.485 11 6 C6.95743617 4.77782954 3.50711041 3.37245704 0 1 C0 0.67 0 0.34 0 0 Z "
        fill="#414043" transform="translate(340,312)" />
    <path
        d="M0 0 C0.33 2.31 0.66 4.62 1 7 C0.34 5.68 -0.32 4.36 -1 3 C-3.24362573 2.7715451 -3.24362573 2.7715451 -5.125 5 C-5.74375 5.66 -6.3625 6.32 -7 7 C-7.33 5.35 -7.66 3.7 -8 2 C-5.09399739 0.74335022 -3.20395416 0 0 0 Z "
        fill="#515053" transform="translate(68,265)" />
    <path
        d="M0 0 C4.33034194 3.84919283 6.6560756 7.72289646 9 13 C8.34 13 7.68 13 7 13 C5 10 5 10 5 7 C3.68 6.67 2.36 6.34 1 6 C0.67 4.02 0.34 2.04 0 0 Z "
        fill="#46474F" transform="translate(153,255)" />
    <path
        d="M0 0 C0.66 0 1.32 0 2 0 C3.125 5.75 3.125 5.75 2 8 C1.34 8 0.68 8 0 8 C-2 5 -2 5 -2 2 C-1.34 2 -0.68 2 0 2 C0 1.34 0 0.68 0 0 Z "
        fill="#39393C" transform="translate(452,309)" />
    <path
        d="M0 0 C0.66 0.33 1.32 0.66 2 1 C0.576875 1.8971875 0.576875 1.8971875 -0.875 2.8125 C-4.13964197 4.81562526 -4.13964197 4.81562526 -6 8 C-7.65 7.67 -9.3 7.34 -11 7 C-7.54143152 4.05004453 -4.19978515 1.77324262 0 0 Z "
        fill="#4E4D4F" transform="translate(349,252)" />
    <path
        d="M0 0 C0.625 1.8125 0.625 1.8125 1 4 C-1 7 -1 7 -3.375 7.9375 C-6 8 -6 8 -8.3125 6.0625 C-8.869375 5.381875 -9.42625 4.70125 -10 4 C-7.36 4 -4.72 4 -2 4 C-1.34 2.68 -0.68 1.36 0 0 Z "
        fill="#5A595C" transform="translate(373,299)" />
    <path
        d="M0 0 C2.64 1.65 5.28 3.3 8 5 C7.01 5.33 6.02 5.66 5 6 C4.34 6.66 3.68 7.32 3 8 C1.5 6.8125 1.5 6.8125 0 5 C-0.1875 2.3125 -0.1875 2.3125 0 0 Z "
        fill="#434345" transform="translate(670,114)" />
    <path
        d="M0 0 C1.98 0.99 1.98 0.99 4 2 C3.7834375 2.99 3.7834375 2.99 3.5625 4 C2.87700084 7.65599551 2.43824485 11.30622195 2 15 C1.67 15 1.34 15 1 15 C0.67 10.05 0.34 5.1 0 0 Z "
        fill="#635D62" transform="translate(255,79)" />
    <path
        d="M0 0 C1.32 0 2.64 0 4 0 C4 0.66 4 1.32 4 2 C3.34 2 2.68 2 2 2 C1.7525 2.61875 1.505 3.2375 1.25 3.875 C-0.20628639 6.35068687 -1.37812506 6.95125002 -4 8 C-4 7.01 -4 6.02 -4 5 C-3.01 5 -2.02 5 -1 5 C-1 4.34 -1 3.68 -1 3 C-0.34 3 0.32 3 1 3 C0.67 2.01 0.34 1.02 0 0 Z "
        fill="#555356" transform="translate(390,305)" />
    <path
        d="M0 0 C2.62113708 0 4.50935112 0.31292445 7 1 C5.07423885 3.43929746 3.19909405 5.80090595 1 8 C0.67 5.36 0.34 2.72 0 0 Z "
        fill="#4D4A4D" transform="translate(656,274)" />
    <path
        d="M0 0 C0.66 0.33 1.32 0.66 2 1 C0.625 3 0.625 3 -1 5 C-1.66 5 -2.32 5 -3 5 C-2.67 6.32 -2.34 7.64 -2 9 C-2.99 9.495 -2.99 9.495 -4 10 C-4.8125 8.375 -4.8125 8.375 -5 6 C-3.53181864 3.75390165 -1.84147142 1.97621323 0 0 Z "
        fill="#565357" transform="translate(54,251)" />
    <path
        d="M0 0 C0.66 0 1.32 0 2 0 C1.71758359 1.46015291 1.42373386 2.91809793 1.125 4.375 C0.96257812 5.18710938 0.80015625 5.99921875 0.6328125 6.8359375 C0 9 0 9 -2 11 C-2.33 9.02 -2.66 7.04 -3 5 C-2.01 5 -1.02 5 0 5 C0 3.35 0 1.7 0 0 Z "
        fill="#4B4B4D" transform="translate(326,92)" />
    <path
        d="M0 0 C0.66 0 1.32 0 2 0 C1.814375 1.11375 1.62875 2.2275 1.4375 3.375 C0.68319343 6.82568861 0.68319343 6.82568861 2 9 C0.68 8.34 -0.64 7.68 -2 7 C-2.125 4.625 -2.125 4.625 -2 2 C-1.34 1.34 -0.68 0.68 0 0 Z "
        fill="#676669" transform="translate(418,252)" />
    <path
        d="M0 0 C0 0.66 0 1.32 0 2 C-4.95 1.67 -9.9 1.34 -15 1 C-15 0.67 -15 0.34 -15 0 C-13.06325815 -0.19517554 -11.12555991 -0.38087873 -9.1875 -0.5625 C-8.10855469 -0.66691406 -7.02960937 -0.77132812 -5.91796875 -0.87890625 C-3 -1 -3 -1 0 0 Z "
        fill="#555254" transform="translate(587,228)" />
    <path
        d="M0 0 C2.31 0.33 4.62 0.66 7 1 C3.79663178 3.83374881 1.21912747 4.5205537 -3 5 C-2.01 3.35 -1.02 1.7 0 0 Z "
        fill="#534A54" transform="translate(649,221)" />
    <path
        d="M0 0 C0.66 0 1.32 0 2 0 C1.67 5.61 1.34 11.22 1 17 C0.67 17 0.34 17 0 17 C-0.19386492 14.35448944 -0.38038267 11.70882217 -0.5625 9.0625 C-0.61857422 8.30775391 -0.67464844 7.55300781 -0.73242188 6.77539062 C-0.86176157 4.85254042 -0.93516912 2.92610452 -1 1 C-0.67 0.67 -0.34 0.34 0 0 Z "
        fill="#7B7B7F" transform="translate(443,69)" />
    <path
        d="M0 0 C0.66 0.33 1.32 0.66 2 1 C1.34 2.65 0.68 4.3 0 6 C0.66 6.33 1.32 6.66 2 7 C1.34 7.66 0.68 8.32 0 9 C-2 7 -2 7 -2.125 3.875 C-2.08375 2.92625 -2.0425 1.9775 -2 1 C-1.34 0.67 -0.68 0.34 0 0 Z "
        fill="#474749" transform="translate(149,309)" />
    <path
        d="M0 0 C0.66 0 1.32 0 2 0 C2.625 2.875 2.625 2.875 3 6 C2.34 6.66 1.68 7.32 1 8 C-1.125 3.375 -1.125 3.375 0 0 Z "
        fill="#3F3D41" transform="translate(562,309)" />
    <path
        d="M0 0 C2.11236308 3.75350671 2.09875095 5.78812136 1 10 C0.34 10.66 -0.32 11.32 -1 12 C-2.09898702 8.70303895 -1.87124444 7.59505097 -1.0625 4.3125 C-0.86785156 3.50425781 -0.67320312 2.69601563 -0.47265625 1.86328125 C-0.31667969 1.24839844 -0.16070312 0.63351563 0 0 Z "
        fill="#3B393D" transform="translate(338,179)" />
    <path
        d="M0 0 C0.99 0.33 1.98 0.66 3 1 C3.33 1.99 3.66 2.98 4 4 C2.02 4.99 2.02 4.99 0 6 C-1.125 2.25 -1.125 2.25 0 0 Z "
        fill="#2A272B" transform="translate(540,306)" />
    <path
        d="M0 0 C0.66 0 1.32 0 2 0 C0.87548273 2.9719385 -0.22293791 5.33440687 -2 8 C-2.66 8 -3.32 8 -4 8 C-3.67 6.35 -3.34 4.7 -3 3 C-2.01 3 -1.02 3 0 3 C0 2.01 0 1.02 0 0 Z "
        fill="#5F5C60" transform="translate(480,279)" />
    <path
        d="M0 0 C3.53372712 1.96318174 6.24479785 4.04070881 9 7 C6.69 6.34 4.38 5.68 2 5 C2 4.01 2 3.02 2 2 C1.34 2 0.68 2 0 2 C0 1.34 0 0.68 0 0 Z "
        fill="#6C6C6C" transform="translate(562,181)" />
    <path
        d="M0 0 C0.66 0 1.32 0 2 0 C2 1.98 2 3.96 2 6 C0.02 6.99 0.02 6.99 -2 8 C-2 7.34 -2 6.68 -2 6 C-1.34 6 -0.68 6 0 6 C-0.33 5.01 -0.66 4.02 -1 3 C-0.67 2.01 -0.34 1.02 0 0 Z "
        fill="#4A4A4D" transform="translate(133,310)" />
    <path d="M0 0 C1.32 0 2.64 0 4 0 C3.67 1.32 3.34 2.64 3 4 C1.35 4.33 -0.3 4.66 -2 5 C-1.34 3.35 -0.68 1.7 0 0 Z "
        fill="#212021" transform="translate(281,305)" />
    <path d="M0 0 C0.66 1.32 1.32 2.64 2 4 C0.625 6 0.625 6 -1 8 C-1.66 8 -2.32 8 -3 8 C-1.125 2.25 -1.125 2.25 0 0 Z "
        fill="#514D53" transform="translate(124,282)" />
    <path
        d="M0 0 C0.625 2.5625 0.625 2.5625 1 5 C0.2575 4.54625 -0.485 4.0925 -1.25 3.625 C-3.46930578 2.31359204 -5.67967822 1.11719197 -8 0 C-2.25 -1.125 -2.25 -1.125 0 0 Z "
        fill="#616162" transform="translate(457,261)" />
    <path
        d="M0 0 C0.66 0 1.32 0 2 0 C1.25 2.4375 1.25 2.4375 0 5 C-2.125 5.8125 -2.125 5.8125 -4 6 C-2.84826645 3.53199953 -1.95216435 1.95216435 0 0 Z "
        fill="#474547" transform="translate(270,251)" />
    <path
        d="M0 0 C1.80411967 2.75924185 2.0127245 3.88972103 1.625 7.25 C1.41875 8.1575 1.2125 9.065 1 10 C-1 8 -1 8 -1.1875 4.4375 C-1 1 -1 1 0 0 Z "
        fill="#6F6E6F" transform="translate(40,208)" />
    <path
        d="M0 0 C-5.07006276 2.53503138 -7.21472229 2.96421295 -13 2 C-13 1.67 -13 1.34 -13 1 C-8.59085217 -0.10228696 -4.51617599 -0.07654536 0 0 Z "
        fill="#6A696A" transform="translate(73,33)" />
    <path
        d="M0 0 C-1.32 0.99 -2.64 1.98 -4 3 C-4.33 2.67 -4.66 2.34 -5 2 C-6.99958364 1.95919217 -9.00045254 1.95745644 -11 2 C-6.98764085 -0.6749061 -4.6342454 -1.48957888 0 0 Z "
        fill="#636263" transform="translate(586,33)" />
    <path
        d="M0 0 C0 0.66 0 1.32 0 2 C-2.64 2.33 -5.28 2.66 -8 3 C-8 2.34 -8 1.68 -8 1 C-5.07175348 0.02391783 -3.04386724 -0.08226668 0 0 Z "
        fill="#514E55" transform="translate(97,317)" />
    <path d="M0 0 C2.72426311 2.35277269 3.8141763 4.62496331 5 8 C3.35 7.67 1.7 7.34 0 7 C0 4.69 0 2.38 0 0 Z "
        fill="#4D4B4D" transform="translate(320,56)" />
    <path
        d="M0 0 C0.66 0.33 1.32 0.66 2 1 C0.515 3.475 0.515 3.475 -1 6 C-1.66 5.67 -2.32 5.34 -3 5 C-3 3.68 -3 2.36 -3 1 C-2.01 0.67 -1.02 0.34 0 0 Z "
        fill="#2D292E" transform="translate(47,38)" />
    <path d="M0 0 C6.625 -0.25 6.625 -0.25 10 2 C7.36 2.33 4.72 2.66 2 3 C1.34 2.01 0.68 1.02 0 0 Z " fill="#575559"
        transform="translate(442,33)" />
</svg>