<svg width="543" height="206" viewBox="0 0 543 206" fill="none" xmlns="http://www.w3.org/2000/svg">
<path d="M283.526 0.730695C283.744 0.730162 283.961 0.729629 284.186 0.729081C284.55 0.729655 284.55 0.729655 284.922 0.73024C285.182 0.72999 285.441 0.729661 285.701 0.729259C286.424 0.728401 287.148 0.72877 287.871 0.729341C288.502 0.729686 289.133 0.729334 289.763 0.728982C291.896 0.727807 294.028 0.72899 296.161 0.730643C296.723 0.731067 297.286 0.73144 297.849 0.731795C302.68 0.734876 307.51 0.740763 312.341 0.747862C315.224 0.752054 318.108 0.755277 320.991 0.756872C321.135 0.756952 321.279 0.757032 321.427 0.757114C322.165 0.75752 322.902 0.757917 323.64 0.75831C329.464 0.761437 335.289 0.768418 341.114 0.780174C341.728 0.781401 342.342 0.782613 342.956 0.783815C343.184 0.784262 343.184 0.784262 343.416 0.784719C345.875 0.789472 348.334 0.79105 350.793 0.791525C353.29 0.792088 355.787 0.796182 358.285 0.803758C359.791 0.808224 361.297 0.810008 362.803 0.80814C363.936 0.807026 365.07 0.81082 366.204 0.816538C366.666 0.818095 367.128 0.818036 367.591 0.81626C368.218 0.814085 368.845 0.817645 369.472 0.822706C369.655 0.820692 369.838 0.818679 370.027 0.816604C371.256 0.835248 371.256 0.835248 371.863 1.42244C371.948 1.57559 372.034 1.72873 372.122 1.88652C372.184 1.57525 372.246 1.26399 372.31 0.943294C381.149 0.938932 389.987 0.93563 398.825 0.933661C399.88 0.933425 400.934 0.933181 401.989 0.932932C402.303 0.932858 402.303 0.932858 402.625 0.932782C405.978 0.931971 409.331 0.93049 412.685 0.92874C416.151 0.926946 419.618 0.925922 423.085 0.925545C425.021 0.925314 426.957 0.924775 428.893 0.923349C433.734 0.919936 438.575 0.924524 443.416 0.941396C444 0.943358 444.584 0.945099 445.169 0.946802C447.397 0.953509 449.624 0.963226 451.852 0.979575C452.817 0.986645 453.782 0.992584 454.747 0.995415C455.641 0.998125 456.535 1.0044 457.429 1.01349C457.757 1.01622 458.086 1.01768 458.414 1.01779C458.862 1.01814 459.31 1.0231 459.759 1.02925C459.889 1.02827 460.02 1.02729 460.154 1.02629C460.805 1.04034 461.099 1.09445 461.608 1.51565C461.752 1.69923 461.752 1.69923 461.899 1.88652C461.961 1.63751 462.023 1.3885 462.087 1.13194C471.79 1.08445 481.492 1.04788 491.194 1.02597C492.339 1.02338 493.485 1.02069 494.63 1.01795C494.972 1.01713 494.972 1.01713 495.321 1.0163C499.013 1.00727 502.706 0.990908 506.398 0.97184C510.187 0.95244 513.975 0.94091 517.763 0.936697C520.101 0.933848 522.439 0.924849 524.777 0.908002C526.38 0.89704 527.983 0.893717 529.586 0.896413C530.511 0.897744 531.436 0.895693 532.361 0.884577C533.208 0.874469 534.055 0.873973 534.902 0.881063C535.208 0.881939 535.514 0.879312 535.82 0.872795C538.082 0.827446 538.082 0.827446 539.04 1.57332C539.799 2.44722 540.276 3.08059 540.209 4.26733C540.14 4.66958 540.063 5.0707 539.982 5.47077C539.933 5.84197 539.885 6.21321 539.84 6.58488C539.754 7.28796 539.654 7.98929 539.558 8.69099C539.516 8.9956 539.475 9.30021 539.433 9.60483C539.347 10.2381 539.26 10.8713 539.173 11.5044C539.061 12.3167 538.95 13.1291 538.84 13.9416C538.754 14.5682 538.668 15.1948 538.582 15.8214C538.541 16.1211 538.5 16.421 538.46 16.7208C538.403 17.1375 538.345 17.5542 538.288 17.9708C538.239 18.3262 538.239 18.3262 538.189 18.6889C538.096 19.2418 538.096 19.2418 537.908 19.6191C529.879 19.6191 521.85 19.6191 513.577 19.6191C513.515 20.4907 513.453 21.3622 513.389 22.2601C513.338 22.7236 513.282 23.1866 513.219 23.6485C513.186 23.8909 513.152 24.1333 513.118 24.3831C513.082 24.643 513.046 24.9028 513.009 25.1627C512.97 25.4458 512.931 25.7289 512.892 26.0121C512.786 26.7827 512.679 27.5531 512.572 28.3235C512.456 29.1572 512.342 29.991 512.227 30.8248C512.002 32.4548 511.776 34.0847 511.55 35.7146C511.287 37.6134 511.024 39.5123 510.762 41.4113C510.294 44.7988 509.825 48.1862 509.356 51.5736C508.9 54.8599 508.445 58.1463 507.991 61.4328C507.963 61.6355 507.935 61.8381 507.906 62.0469C507.794 62.8615 507.681 63.6761 507.569 64.4906C507.083 68.0028 506.597 71.5148 506.111 75.0269C506.033 75.5953 505.954 76.1637 505.875 76.7321C505.6 78.7212 505.325 80.7102 505.049 82.6992C504.935 83.5215 504.822 84.3439 504.708 85.1662C504.604 85.9188 504.499 86.6714 504.395 87.4239C504.357 87.6963 504.32 87.9686 504.282 88.241C504.231 88.6111 504.18 88.9811 504.128 89.3511C504.1 89.5567 504.071 89.7623 504.042 89.9741C503.959 90.5447 503.866 91.113 503.77 91.6814C500.258 91.7255 496.746 91.7587 493.234 91.7791C491.603 91.7888 489.973 91.8021 488.342 91.8237C486.92 91.8425 485.499 91.8547 484.077 91.8589C483.324 91.8613 482.572 91.8671 481.819 91.8808C481.11 91.8937 480.401 91.8976 479.692 91.8948C479.31 91.8955 478.927 91.9056 478.545 91.9161C477.294 91.9021 476.512 91.7639 475.582 90.8898C474.983 90.0721 474.835 89.5895 474.942 88.5844C474.965 88.3517 474.989 88.1189 475.013 87.8791C475.042 87.6398 475.071 87.4005 475.101 87.1539C475.128 86.9292 475.155 86.7045 475.182 86.473C475.273 85.7474 475.372 85.0232 475.474 84.299C475.512 84.021 475.55 83.7431 475.588 83.4651C475.692 82.7088 475.797 81.9528 475.902 81.1967C476.015 80.3785 476.128 79.5601 476.24 78.7417C476.461 77.142 476.682 75.5425 476.904 73.9431C477.162 72.08 477.419 70.2168 477.676 68.3536C478.134 65.0303 478.594 61.7071 479.054 58.3839C479.5 55.1591 479.946 51.9341 480.391 48.7091C480.418 48.5102 480.446 48.3113 480.474 48.1063C480.501 47.9077 480.529 47.7092 480.557 47.5046C481.064 43.831 481.571 40.1574 482.079 36.4839C482.259 35.1848 482.438 33.8856 482.617 32.5865C482.836 31.005 483.054 29.4236 483.273 27.8422C483.385 27.0353 483.497 26.2283 483.608 25.4212C483.71 24.683 483.812 23.9449 483.914 23.2069C483.952 22.9394 483.988 22.6718 484.025 22.4043C484.075 22.0416 484.126 21.679 484.176 21.3164C484.204 21.1147 484.232 20.913 484.261 20.7051C484.33 20.2705 484.416 19.8545 484.532 19.4305C484.415 19.4312 484.298 19.4319 484.177 19.4326C481.333 19.4492 478.489 19.4617 475.644 19.4696C474.269 19.4735 472.893 19.4788 471.518 19.4874C470.319 19.4949 469.12 19.4998 467.921 19.5015C467.286 19.5025 466.651 19.5048 466.016 19.5103C465.308 19.5157 464.599 19.5165 463.891 19.5161C463.68 19.5189 463.469 19.5216 463.252 19.5244C463.059 19.5233 462.866 19.5223 462.667 19.5212C462.5 19.5219 462.332 19.5226 462.159 19.5233C461.57 19.4016 461.34 19.1254 460.956 18.6759C460.831 18.8004 460.707 18.9249 460.579 19.0532C460.134 19.1 460.134 19.1 459.563 19.0996C459.346 19.1004 459.129 19.1011 458.906 19.1019C458.665 19.1008 458.425 19.0997 458.177 19.0986C457.921 19.0987 457.665 19.0991 457.409 19.0995C456.702 19.1004 455.995 19.0989 455.289 19.097C454.528 19.0954 453.767 19.0959 453.005 19.0962C451.686 19.0964 450.366 19.0952 449.047 19.0931C447.139 19.09 445.231 19.089 443.324 19.0886C440.229 19.0877 437.134 19.0852 434.039 19.0816C431.032 19.0782 428.025 19.0755 425.017 19.0739C424.832 19.0738 424.647 19.0737 424.456 19.0736C423.527 19.0731 422.597 19.0726 421.668 19.0722C413.954 19.0683 406.241 19.0616 398.527 19.0532C398.517 19.2304 398.507 19.4077 398.496 19.5903C398.401 21.1421 398.258 22.6727 398.04 24.2129C398.01 24.4267 397.981 24.6406 397.951 24.8609C397.855 25.5561 397.757 26.2511 397.66 26.946C397.592 27.4326 397.525 27.9192 397.458 28.4058C397.299 29.5482 397.14 30.6906 396.981 31.8329C396.799 33.1353 396.618 34.4379 396.437 35.7405C396.066 38.4157 395.694 41.0907 395.321 43.7656C395.563 43.7637 395.805 43.7618 396.055 43.7598C401.809 43.7149 407.563 43.6807 413.317 43.6597C414.026 43.6571 414.734 43.6544 415.443 43.6516C415.584 43.6511 415.725 43.6506 415.87 43.65C418.153 43.641 420.435 43.6246 422.718 43.6055C425.061 43.5861 427.404 43.5746 429.747 43.5704C431.193 43.5676 432.637 43.5586 434.083 43.5417C435.192 43.5294 436.301 43.5281 437.41 43.5309C437.865 43.5304 438.319 43.5262 438.773 43.5183C442.565 43.455 442.565 43.455 443.637 44.4794C444.254 45.1892 444.633 45.815 444.675 46.7645C444.635 47.0793 444.584 47.3929 444.523 47.7043C444.498 47.8794 444.473 48.0545 444.447 48.2348C444.365 48.7948 444.268 49.351 444.17 49.9084C444.115 50.2589 444.062 50.6095 444.009 50.9603C443.896 51.7072 443.777 52.4527 443.654 53.1981C443.352 55.073 443.089 56.9534 442.823 58.8336C442.77 59.2033 442.718 59.5729 442.665 59.9426C442.538 60.8384 442.411 61.7342 442.284 62.6301C436.986 62.6345 431.688 62.6379 426.39 62.6399C423.929 62.6408 421.468 62.6422 419.008 62.6443C416.859 62.6462 414.71 62.6474 412.561 62.6479C411.427 62.6481 410.293 62.6487 409.158 62.6501C403.663 62.6566 398.174 62.6055 392.68 62.4415C392.653 62.6525 392.653 62.6525 392.625 62.8678C392.459 64.1393 392.293 65.4107 392.126 66.6821C392.063 67.1631 392.001 67.6442 391.938 68.1253C391.848 68.816 391.758 69.5066 391.667 70.1973C391.639 70.413 391.611 70.6288 391.582 70.8511C391.556 71.0513 391.53 71.2514 391.502 71.4576C391.468 71.7221 391.468 71.7221 391.433 71.992C391.36 72.4396 391.36 72.4396 391.171 73.0056C391.408 73.0052 391.645 73.0047 391.889 73.0043C397.998 72.9939 404.107 72.9932 410.216 73.0003C410.86 73.001 411.504 73.0017 412.147 73.0024C412.31 73.0026 412.473 73.0028 412.64 73.003C415.179 73.0057 417.718 73.0051 420.257 73.0032C424.047 73.0005 427.837 73.0026 431.627 73.0112C433.606 73.0156 435.585 73.0176 437.565 73.0139C439.268 73.0108 440.971 73.0121 442.674 73.0192C443.553 73.0227 444.432 73.024 445.311 73.0197C446.122 73.0157 446.933 73.0178 447.745 73.0248C448.039 73.0262 448.334 73.0254 448.629 73.0222C451.114 72.997 451.114 72.997 451.969 73.8296C452.247 74.1765 452.247 74.1765 452.468 74.5147C452.593 74.7015 452.717 74.8882 452.846 75.0807C452.899 76.1231 452.803 77.1158 452.655 78.1465C452.635 78.2963 452.614 78.446 452.593 78.6004C452.527 79.0799 452.459 79.5592 452.392 80.0385C452.351 80.3366 452.309 80.6347 452.268 80.9329C452.177 81.5964 452.084 82.2598 451.991 82.9231C451.768 84.5153 451.547 86.1076 451.325 87.7C451.209 88.5329 451.093 89.3658 450.977 90.1987C450.937 90.4871 450.897 90.7755 450.857 91.0639C450.814 91.3696 450.814 91.3695 450.771 91.6814C434.553 91.6881 418.335 91.6872 397.96 91.6467C397.265 91.6452 396.57 91.6437 395.876 91.6422C395.617 91.6417 395.617 91.6417 395.354 91.6411C392.495 91.6351 389.636 91.632 386.777 91.6299C383.786 91.6275 380.796 91.6224 377.806 91.6145C375.986 91.6098 374.166 91.6072 372.347 91.6076C371.118 91.6076 369.889 91.6048 368.66 91.5999C367.954 91.5971 367.248 91.5956 366.542 91.5973C365.778 91.5991 365.015 91.5952 364.251 91.5907C363.917 91.5928 363.917 91.5928 363.575 91.5951C362.076 91.5792 362.076 91.5792 361.321 91.1093C361.213 90.9869 361.105 90.8644 360.994 90.7382C360.932 90.9872 360.87 91.2362 360.805 91.4927C353.275 91.4971 345.744 91.5004 338.213 91.5024C337.306 91.5026 336.399 91.5029 335.492 91.5031C335.312 91.5032 335.132 91.5032 334.946 91.5033C332.444 91.504 329.943 91.5051 327.441 91.5067C325.878 91.5076 324.314 91.5085 322.751 91.5093C322.493 91.5095 322.493 91.5095 322.23 91.5096C318.258 91.5117 314.285 91.512 310.313 91.5067C310.143 91.5065 309.973 91.5062 309.798 91.506C308.266 91.504 306.733 91.5018 305.2 91.4993C301.374 91.4929 297.547 91.4922 293.721 91.5058C291.063 91.5151 288.405 91.5186 285.748 91.5156C284.164 91.514 282.581 91.518 280.998 91.5294C279.813 91.5375 278.629 91.5357 277.444 91.5302C276.964 91.5295 276.484 91.5321 276.004 91.5381C271.966 91.5863 271.966 91.5863 270.814 90.5001C270.328 89.7015 270.216 89.1874 270.316 88.262C270.35 87.939 270.35 87.939 270.384 87.6095C270.41 87.3969 270.436 87.1843 270.463 86.9653C270.484 86.7819 270.506 86.5985 270.528 86.4096C270.597 85.8568 270.673 85.3053 270.751 84.7536C270.78 84.5448 270.808 84.336 270.838 84.1209C270.934 83.4272 271.031 82.7336 271.128 82.04C271.198 81.538 271.267 81.0359 271.337 80.5339C271.487 79.4506 271.637 78.3674 271.788 77.2842C272.01 75.6946 272.23 74.1048 272.451 72.515C272.815 69.8874 273.18 67.2599 273.546 64.6324C274.08 60.7884 274.614 56.9443 275.148 53.1002C275.18 52.8631 275.18 52.8631 275.214 52.6212C275.413 51.1889 275.612 49.7566 275.81 48.3243C276.03 46.7416 276.25 45.159 276.469 43.5763C277.501 36.1461 278.53 28.7156 279.548 21.2834C279.625 20.7208 279.702 20.1582 279.779 19.5955C280.207 16.4669 280.635 13.3382 281.061 10.2092C281.217 9.06214 281.374 7.91519 281.531 6.76829C281.651 5.89253 281.77 5.01663 281.888 4.14069C281.947 3.71023 282.006 3.27977 282.065 2.84931C282.091 2.65535 282.117 2.46139 282.144 2.26155C282.168 2.08815 282.192 1.91475 282.217 1.7361C282.237 1.58622 282.257 1.43634 282.278 1.28191C282.419 0.565545 282.884 0.730937 283.526 0.730695ZM308.75 18.8645C308.458 20.4316 308.458 20.4316 308.213 22.0064C308.174 22.2825 308.174 22.2825 308.134 22.5641C308.107 22.758 308.08 22.9519 308.053 23.1517C308.023 23.3621 307.994 23.5725 307.963 23.7892C307.867 24.4777 307.771 25.1662 307.676 25.8547C307.609 26.3359 307.541 26.817 307.474 27.2982C307.334 28.3031 307.194 29.3081 307.055 30.3131C306.894 31.4734 306.732 32.6336 306.569 33.7937C306.413 34.9138 306.257 36.034 306.101 37.1542C306.035 37.6294 305.969 38.1046 305.902 38.5798C305.809 39.2425 305.718 39.9053 305.626 40.5682C305.598 40.7644 305.571 40.9606 305.542 41.1627C305.517 41.3436 305.493 41.5244 305.467 41.7107C305.445 41.8671 305.423 42.0235 305.401 42.1847C305.353 42.6519 305.347 43.1077 305.355 43.577C305.484 43.5778 305.613 43.5786 305.746 43.5794C307.039 43.5874 308.332 43.5955 309.625 43.6036C310.346 43.6081 311.067 43.6126 311.787 43.617C315.132 43.6378 318.478 43.6596 321.823 43.6849C323.13 43.6948 324.436 43.7045 325.743 43.7141C326.071 43.7165 326.399 43.719 326.727 43.7214C330.89 43.7523 335.053 43.77 339.217 43.7615C340.547 43.7596 341.878 43.762 343.208 43.7648C344.42 43.7669 345.632 43.7617 346.844 43.7512C347.582 43.7465 348.32 43.7488 349.059 43.7531C349.394 43.7536 349.729 43.7512 350.063 43.7456C352.835 43.701 352.835 43.701 353.857 44.6624C354.647 45.7939 354.433 46.808 354.204 48.1045C354.171 48.3549 354.139 48.6055 354.108 48.8563C354.005 49.7003 353.89 50.5422 353.773 51.3844C353.731 51.6929 353.689 52.0015 353.647 52.3101C353.538 53.1142 353.427 53.9181 353.317 54.7221C353.139 56.0158 352.963 57.3096 352.786 58.6035C352.725 59.0543 352.663 59.5052 352.601 59.956C352.563 60.2302 352.526 60.5045 352.488 60.7788C352.439 61.1384 352.439 61.1384 352.388 61.5053C352.31 62.0327 352.31 62.0327 352.318 62.4415C335.949 62.4415 319.58 62.4415 302.714 62.4415C302.174 65.9572 301.676 69.4797 301.206 73.0056C321.06 73.0056 340.915 73.0056 361.371 73.0056C361.496 73.2546 361.62 73.5036 361.748 73.7601C361.935 73.8847 362.122 74.0092 362.314 74.1374C364.04 61.9026 365.742 49.6645 367.434 37.4252C367.624 36.0531 367.814 34.6811 368.004 33.3091C368.239 31.6165 368.473 29.9238 368.707 28.2311C368.828 27.3528 368.95 26.4745 369.071 25.5962C369.184 24.7833 369.297 23.9704 369.409 23.1574C369.449 22.8609 369.491 22.5644 369.532 22.2679C369.588 21.865 369.643 21.462 369.699 21.0589C369.73 20.8341 369.761 20.6092 369.793 20.3775C369.873 19.7784 369.873 19.7784 369.859 19.0532C366.449 18.8921 363.047 18.8374 359.634 18.8426C358.948 18.8435 358.261 18.8432 357.575 18.843C356.393 18.8429 355.21 18.8435 354.027 18.8446C352.318 18.8461 350.608 18.8466 348.898 18.8469C346.122 18.8473 343.347 18.8485 340.571 18.8503C337.879 18.852 335.186 18.8534 332.494 18.8542C332.327 18.8542 332.161 18.8543 331.989 18.8543C331.153 18.8546 330.317 18.8548 329.481 18.855C322.571 18.857 315.66 18.8603 308.75 18.8645Z" fill="black"/>
<path d="M266.69 113.564C270.125 113.516 273.56 113.479 276.995 113.457C278.59 113.446 280.185 113.431 281.78 113.408C283.171 113.387 284.561 113.373 285.952 113.369C286.688 113.366 287.424 113.36 288.16 113.345C288.854 113.331 289.547 113.326 290.241 113.329C290.615 113.329 290.988 113.317 291.362 113.306C292.533 113.321 293.276 113.423 294.133 114.277C294.798 115.011 295.281 115.567 295.264 116.587C295.208 116.925 295.14 117.262 295.064 117.596C294.995 117.987 294.926 118.378 294.858 118.77C294.817 118.986 294.776 119.203 294.734 119.427C294.584 120.282 294.467 121.139 294.356 122C294.336 122.158 294.315 122.316 294.294 122.479C294.253 122.798 294.212 123.118 294.171 123.438C294.072 124.206 293.97 124.974 293.866 125.742C293.848 125.878 293.83 126.015 293.812 126.155C293.683 127.103 293.683 127.103 293.473 127.524C293.596 127.519 293.72 127.515 293.848 127.51C295.142 127.464 296.436 127.433 297.731 127.41C298.213 127.399 298.696 127.385 299.178 127.367C303.343 127.216 303.343 127.216 304.368 127.909C305.009 128.594 305.295 129.185 305.429 130.112C305.409 130.633 305.338 131.124 305.241 131.635C305.152 132.129 305.087 132.623 305.023 133.121C304.889 134.16 304.746 135.198 304.598 136.235C304.505 136.89 304.414 137.545 304.323 138.201C304.264 138.617 304.205 139.034 304.147 139.451C304.106 139.745 304.106 139.745 304.064 140.044C304.038 140.225 304.012 140.406 303.986 140.592C303.963 140.751 303.941 140.91 303.918 141.074C303.846 141.484 303.846 141.484 303.657 142.049C303.783 142.045 303.909 142.04 304.039 142.035C305.354 141.989 306.67 141.958 307.986 141.935C308.476 141.925 308.966 141.911 309.457 141.893C314.047 141.728 314.047 141.728 315.338 142.79C316.52 144.584 315.745 147.035 315.398 149.006C315.328 149.448 315.259 149.89 315.191 150.333C315.064 151.152 314.931 151.971 314.791 152.788C314.588 153.986 314.404 155.186 314.219 156.386C318.514 156.48 318.514 156.48 322.895 156.575C322.895 156.077 322.895 155.579 322.895 155.066C322.917 154.794 322.944 154.523 322.98 154.252C322.999 154.109 323.018 153.966 323.038 153.819C323.069 153.591 323.069 153.591 323.102 153.358C323.135 153.11 323.135 153.11 323.169 152.857C323.243 152.306 323.319 151.755 323.394 151.204C323.448 150.807 323.502 150.411 323.555 150.014C323.7 148.94 323.847 147.866 323.994 146.792C324.147 145.668 324.299 144.543 324.452 143.419C324.708 141.531 324.965 139.643 325.222 137.756C325.552 135.333 325.881 132.909 326.21 130.486C326.493 128.402 326.776 126.319 327.059 124.235C327.15 123.566 327.241 122.896 327.332 122.226C327.475 121.174 327.618 120.122 327.762 119.07C327.814 118.684 327.867 118.298 327.919 117.912C327.991 117.385 328.063 116.858 328.135 116.332C328.155 116.179 328.176 116.025 328.197 115.867C328.295 115.157 328.402 114.454 328.554 113.753C332.041 113.704 335.528 113.668 339.015 113.645C340.635 113.635 342.254 113.62 343.873 113.596C345.285 113.575 346.697 113.562 348.109 113.557C348.856 113.555 349.603 113.548 350.35 113.533C351.054 113.519 351.758 113.515 352.463 113.518C352.842 113.517 353.222 113.506 353.602 113.495C354.579 113.507 355.255 113.57 356.075 114.126C356.78 114.85 357.181 115.455 357.293 116.471C357.25 117.114 357.17 117.724 357.053 118.357C356.968 118.818 356.895 119.281 356.824 119.745C356.712 120.475 356.596 121.203 356.477 121.931C356.255 123.312 356.064 124.697 355.877 126.082C355.859 126.211 355.842 126.34 355.824 126.472C355.751 127.009 355.678 127.546 355.605 128.084C355.389 129.681 355.167 131.277 354.946 132.873C354.903 133.18 354.86 133.487 354.818 133.794C354.753 134.263 354.688 134.732 354.622 135.202C354.396 136.831 354.17 138.46 353.945 140.089C353.539 143.019 353.133 145.948 352.727 148.877C351.914 154.736 351.102 160.595 350.29 166.454C350.059 168.121 349.828 169.788 349.597 171.455C348.706 177.878 347.816 184.302 346.938 190.727C346.873 191.197 346.809 191.667 346.745 192.137C346.484 194.046 346.223 195.955 345.964 197.864C345.864 198.599 345.764 199.334 345.663 200.069C345.618 200.402 345.573 200.735 345.528 201.068C345.468 201.513 345.407 201.959 345.346 202.404C345.312 202.65 345.279 202.896 345.245 203.149C345.151 203.736 345.151 203.736 344.962 204.302C341.5 204.351 338.037 204.387 334.574 204.41C332.966 204.42 331.359 204.435 329.751 204.459C328.349 204.479 326.947 204.493 325.545 204.497C324.803 204.5 324.062 204.506 323.32 204.522C322.62 204.536 321.921 204.54 321.222 204.537C320.845 204.538 320.468 204.549 320.091 204.56C319.08 204.548 318.439 204.515 317.642 203.859C316.916 203.017 316.382 202.377 316.408 201.232C316.462 200.874 316.527 200.518 316.601 200.164C316.668 199.755 316.734 199.346 316.801 198.938C316.841 198.714 316.881 198.491 316.922 198.26C317.07 197.412 317.183 196.56 317.296 195.707C317.327 195.476 317.327 195.476 317.358 195.24C317.399 194.929 317.441 194.619 317.482 194.308C317.581 193.564 317.683 192.82 317.787 192.076C317.805 191.945 317.823 191.813 317.841 191.677C317.97 190.763 317.97 190.763 318.18 190.342C318.056 190.347 317.933 190.351 317.805 190.355C316.511 190.397 315.217 190.425 313.922 190.446C313.44 190.456 312.957 190.468 312.475 190.485C311.779 190.508 311.085 190.518 310.389 190.527C310.175 190.536 309.961 190.546 309.741 190.556C308.822 190.557 308.227 190.51 307.469 189.963C306.775 189.256 306.345 188.725 306.172 187.739C306.205 187.474 306.249 187.21 306.298 186.947C306.343 186.563 306.388 186.179 306.433 185.794C306.495 185.35 306.558 184.905 306.621 184.461C306.654 184.225 306.687 183.989 306.722 183.747C306.791 183.251 306.861 182.755 306.932 182.26C307.023 181.624 307.112 180.989 307.201 180.353C307.286 179.745 307.372 179.138 307.458 178.53C307.49 178.302 307.522 178.073 307.555 177.838C307.586 177.627 307.616 177.417 307.647 177.2C307.686 176.922 307.686 176.922 307.727 176.638C307.807 176.194 307.807 176.194 307.995 175.817C307.867 175.821 307.738 175.826 307.606 175.831C306.263 175.877 304.92 175.908 303.576 175.931C303.075 175.94 302.575 175.955 302.074 175.973C301.352 175.999 300.632 176.01 299.91 176.019C299.687 176.03 299.465 176.041 299.236 176.052C298.259 176.053 297.67 176.016 296.905 175.373C295.635 173.89 295.635 173.89 295.654 172.821C295.707 172.489 295.77 172.16 295.842 171.832C295.909 171.442 295.975 171.053 296.041 170.663C296.082 170.441 296.123 170.22 296.165 169.992C296.391 168.743 296.557 167.486 296.736 166.23C296.963 164.646 297.199 163.063 297.433 161.48C294.57 161.48 291.707 161.48 288.757 161.48C288.695 162.289 288.633 163.098 288.569 163.932C288.5 164.526 288.428 165.117 288.347 165.709C288.325 165.871 288.304 166.032 288.282 166.199C288.21 166.731 288.138 167.263 288.066 167.795C288.014 168.18 287.962 168.565 287.91 168.95C287.771 169.989 287.63 171.028 287.49 172.067C287.342 173.156 287.196 174.246 287.049 175.336C286.803 177.164 286.556 178.992 286.309 180.819C285.992 183.165 285.675 185.511 285.359 187.856C285.087 189.876 284.815 191.895 284.542 193.914C284.455 194.562 284.367 195.211 284.28 195.859C284.143 196.877 284.005 197.894 283.868 198.912C283.817 199.286 283.767 199.659 283.716 200.032C283.648 200.542 283.579 201.052 283.51 201.561C283.49 201.709 283.47 201.856 283.45 202.009C283.345 202.776 283.231 203.54 283.099 204.302C279.612 204.322 276.125 204.33 272.638 204.326C271.018 204.324 269.399 204.326 267.78 204.336C266.368 204.345 264.956 204.347 263.544 204.342C262.797 204.339 262.05 204.339 261.303 204.348C260.598 204.356 259.895 204.355 259.19 204.347C258.811 204.345 258.431 204.352 258.051 204.36C256.841 204.338 256.016 204.193 255.089 203.38C254.415 202.486 254.334 201.753 254.465 200.671C254.539 200.179 254.623 199.69 254.712 199.201C254.853 198.383 254.956 197.561 255.063 196.738C255.158 196.013 255.257 195.288 255.358 194.564C255.385 194.373 255.385 194.373 255.412 194.177C255.449 193.913 255.486 193.648 255.523 193.384C255.62 192.681 255.717 191.978 255.815 191.275C255.983 190.057 256.152 188.838 256.322 187.619C256.57 185.831 256.818 184.044 257.066 182.256C257.472 179.322 257.879 176.387 258.287 173.453C258.674 170.662 259.061 167.872 259.448 165.081C259.472 164.912 259.495 164.743 259.519 164.568C259.685 163.376 259.85 162.184 260.015 160.991C260.203 159.634 260.391 158.278 260.579 156.921C260.603 156.754 260.626 156.587 260.65 156.414C260.975 154.069 261.3 151.723 261.626 149.377C261.831 147.896 262.037 146.416 262.242 144.936C262.264 144.775 262.287 144.615 262.31 144.449C262.929 139.981 263.547 135.512 264.162 131.043C264.279 130.199 264.395 129.355 264.511 128.511C264.567 128.103 264.623 127.695 264.68 127.287C264.716 127.02 264.753 126.753 264.79 126.487C264.984 125.079 265.177 123.671 265.37 122.263C265.53 121.101 265.69 119.939 265.85 118.777C265.908 118.357 265.965 117.937 266.023 117.517C266.1 116.951 266.178 116.385 266.256 115.818C266.279 115.653 266.301 115.488 266.324 115.319C266.408 114.712 266.496 114.147 266.69 113.564Z" fill="black"/>
<path d="M113.164 113.375C116.627 113.327 120.089 113.29 123.552 113.268C125.16 113.257 126.768 113.243 128.376 113.219C129.778 113.198 131.18 113.185 132.582 113.18C133.324 113.177 134.065 113.171 134.807 113.156C135.507 113.142 136.205 113.138 136.905 113.141C137.282 113.14 137.659 113.129 138.036 113.117C139.044 113.13 139.687 113.165 140.486 113.814C141.272 114.718 141.753 115.337 141.675 116.567C141.609 116.95 141.535 117.333 141.455 117.714C141.405 118.094 141.358 118.474 141.313 118.854C141.259 119.25 141.204 119.645 141.148 120.04C141.119 120.25 141.09 120.461 141.06 120.677C140.969 121.34 140.876 122.003 140.784 122.666C140.721 123.119 140.658 123.572 140.595 124.026C140.443 125.129 140.289 126.232 140.135 127.335C140.317 127.332 140.317 127.332 140.503 127.33C141.773 127.312 143.043 127.308 144.313 127.312C144.786 127.312 145.259 127.308 145.733 127.301C146.415 127.291 147.096 127.294 147.779 127.298C147.989 127.293 148.199 127.287 148.415 127.281C149.62 127.303 150.267 127.507 151.13 128.374C151.62 129 151.935 129.455 151.932 130.26C151.892 130.551 151.841 130.842 151.782 131.13C151.746 131.37 151.746 131.37 151.709 131.615C151.656 131.959 151.6 132.303 151.541 132.646C151.419 133.382 151.331 134.122 151.243 134.863C151.151 135.628 151.05 136.391 150.95 137.154C150.873 137.745 150.796 138.336 150.72 138.927C150.671 139.304 150.622 139.681 150.573 140.058C150.55 140.234 150.528 140.41 150.504 140.592C150.483 140.753 150.461 140.915 150.439 141.081C150.411 141.294 150.411 141.294 150.383 141.511C150.32 141.861 150.32 141.861 150.131 142.238C152.87 142.238 155.609 142.238 158.43 142.238C158.535 141.397 158.639 140.556 158.747 139.69C158.814 139.152 158.881 138.613 158.948 138.075C159.054 137.224 159.16 136.373 159.266 135.522C159.351 134.835 159.437 134.147 159.523 133.46C159.555 133.2 159.587 132.94 159.62 132.68C159.665 132.311 159.712 131.942 159.758 131.573C159.784 131.364 159.81 131.156 159.836 130.941C159.987 129.8 160.154 128.662 160.316 127.524C164.549 127.524 168.781 127.524 173.141 127.524C173.551 124.412 173.551 124.412 173.959 121.3C174.012 120.9 174.065 120.5 174.118 120.1C174.143 119.904 174.169 119.708 174.195 119.507C174.457 117.524 174.742 115.544 175.028 113.564C178.515 113.52 182.002 113.487 185.489 113.466C187.109 113.457 188.728 113.443 190.347 113.422C191.759 113.403 193.171 113.391 194.583 113.387C195.33 113.384 196.077 113.378 196.824 113.365C197.528 113.352 198.232 113.348 198.937 113.351C199.316 113.35 199.696 113.34 200.076 113.329C201.33 113.343 202.098 113.486 203.026 114.367C203.52 114.895 203.692 115.256 203.705 115.981C203.661 116.626 203.59 117.262 203.507 117.903C203.484 118.097 203.461 118.291 203.437 118.491C203.361 119.095 203.278 119.697 203.194 120.3C203.162 120.529 203.131 120.757 203.098 120.993C203.011 121.621 202.924 122.249 202.836 122.878C202.741 123.559 202.647 124.241 202.553 124.922C202.389 126.107 202.225 127.292 202.06 128.476C201.818 130.217 201.576 131.958 201.335 133.699C200.939 136.562 200.542 139.425 200.144 142.288C199.767 145.003 199.39 147.718 199.014 150.433C198.991 150.597 198.969 150.761 198.945 150.93C198.716 152.582 198.487 154.235 198.258 155.887C198.166 156.548 198.075 157.209 197.983 157.869C197.937 158.199 197.892 158.529 197.846 158.859C197.55 160.995 197.254 163.13 196.957 165.266C196.058 171.746 195.161 178.227 194.273 184.709C194.145 185.647 194.016 186.585 193.888 187.523C193.804 188.13 193.721 188.737 193.638 189.344C193.618 189.492 193.597 189.64 193.577 189.792C193.338 191.531 193.1 193.27 192.863 195.01C192.718 196.076 192.572 197.142 192.426 198.209C192.342 198.819 192.259 199.43 192.176 200.041C192.087 200.699 191.997 201.356 191.906 202.013C191.88 202.206 191.854 202.4 191.827 202.599C191.803 202.773 191.779 202.947 191.754 203.126C191.734 203.277 191.713 203.427 191.692 203.583C191.625 203.925 191.625 203.925 191.436 204.113C191.097 204.136 190.756 204.145 190.416 204.149C190.194 204.152 189.972 204.155 189.744 204.158C189.499 204.16 189.253 204.162 189.001 204.165C188.741 204.168 188.482 204.171 188.223 204.174C185.851 204.201 183.479 204.216 181.107 204.227C179.354 204.235 177.601 204.25 175.848 204.272C174.615 204.288 173.382 204.296 172.149 204.299C171.413 204.301 170.677 204.306 169.941 204.319C169.248 204.331 168.555 204.334 167.861 204.33C167.487 204.331 167.113 204.34 166.74 204.35C165.466 204.334 164.746 204.183 163.83 203.263C163.165 202.501 163.067 201.95 163.109 200.976C163.168 200.254 163.251 199.539 163.353 198.821C163.375 198.658 163.398 198.495 163.421 198.326C163.495 197.784 163.571 197.242 163.647 196.7C163.701 196.309 163.755 195.919 163.809 195.528C163.955 194.471 164.102 193.414 164.25 192.358C164.404 191.252 164.557 190.146 164.71 189.04C164.999 186.948 165.29 184.855 165.581 182.763C165.913 180.38 166.243 177.997 166.573 175.615C167.252 170.714 167.933 165.814 168.615 160.914C166.001 160.852 163.387 160.789 160.693 160.725C160.605 161.428 160.516 162.131 160.424 162.856C160.337 163.551 160.248 164.245 160.16 164.94C160.1 165.417 160.04 165.893 159.98 166.369C159.614 169.271 159.233 172.169 158.807 175.062C156.937 175.093 155.066 175.116 153.195 175.131C152.326 175.137 151.458 175.147 150.589 175.162C149.75 175.176 148.911 175.184 148.072 175.187C147.753 175.19 147.433 175.195 147.114 175.202C144.619 175.255 144.619 175.255 143.807 174.786C143.47 174.457 143.219 174.136 142.964 173.742C142.841 173.622 142.718 173.503 142.592 173.379C142.276 172.738 142.421 172.109 142.516 171.426C142.535 171.269 142.554 171.113 142.574 170.952C142.638 170.435 142.707 169.919 142.776 169.403C142.821 169.042 142.867 168.681 142.912 168.32C143.03 167.388 143.153 166.457 143.277 165.526C143.355 164.947 143.431 164.369 143.507 163.79C143.556 163.42 143.605 163.051 143.655 162.682C143.677 162.509 143.7 162.337 143.723 162.159C143.745 162.001 143.766 161.842 143.788 161.679C143.816 161.47 143.816 161.47 143.844 161.257C143.907 160.914 143.907 160.914 144.096 160.537C141.233 160.537 138.37 160.537 135.42 160.537C135.358 161.284 135.296 162.031 135.231 162.8C135.16 163.404 135.085 164.006 135.002 164.608C134.98 164.776 134.958 164.943 134.935 165.115C134.861 165.667 134.786 166.219 134.711 166.771C134.657 167.17 134.604 167.569 134.55 167.968C134.405 169.046 134.26 170.124 134.114 171.201C133.961 172.33 133.81 173.459 133.657 174.588C133.402 176.481 133.147 178.375 132.891 180.268C132.595 182.459 132.299 184.649 132.005 186.84C131.721 188.949 131.436 191.057 131.152 193.165C131.031 194.062 130.91 194.96 130.789 195.857C130.647 196.912 130.505 197.966 130.362 199.021C130.309 199.408 130.257 199.796 130.205 200.184C130.134 200.711 130.063 201.239 129.991 201.766C129.97 201.921 129.95 202.076 129.928 202.235C129.848 202.821 129.761 203.362 129.573 203.925C126.086 203.973 122.599 204.01 119.111 204.032C117.492 204.043 115.873 204.058 114.254 204.081C112.842 204.102 111.43 204.115 110.018 204.12C109.271 204.123 108.524 204.129 107.777 204.144C107.072 204.158 106.369 204.163 105.664 204.16C105.284 204.16 104.905 204.171 104.525 204.183C103.271 204.167 102.481 204.001 101.567 203.106C100.479 201.529 100.926 199.888 101.219 198.111C101.275 197.728 101.33 197.345 101.384 196.961C101.504 196.126 101.629 195.293 101.76 194.459C101.973 193.096 102.172 191.731 102.37 190.366C102.586 188.878 102.803 187.39 103.025 185.903C103.599 182.05 104.145 178.195 104.675 174.336C104.715 174.046 104.755 173.755 104.795 173.465C104.956 172.287 105.118 171.11 105.28 169.932C105.693 166.914 106.112 163.896 106.531 160.878C106.658 159.959 106.785 159.041 106.913 158.122C106.934 157.97 106.955 157.818 106.977 157.662C107.019 157.354 107.062 157.047 107.104 156.739C107.19 156.123 107.275 155.507 107.361 154.89C107.642 152.861 107.923 150.832 108.205 148.802C108.226 148.647 108.248 148.492 108.27 148.332C108.485 146.777 108.701 145.221 108.917 143.665C109.001 143.053 109.086 142.441 109.171 141.829C109.213 141.526 109.255 141.223 109.297 140.92C109.557 139.046 109.817 137.171 110.076 135.297C110.207 134.356 110.337 133.415 110.468 132.475C110.558 131.826 110.647 131.178 110.737 130.529C111.11 127.845 111.481 125.16 111.85 122.476C111.903 122.085 111.957 121.695 112.01 121.305C112.178 120.087 112.345 118.87 112.511 117.652C112.57 117.223 112.629 116.793 112.688 116.363C112.715 116.168 112.741 115.974 112.769 115.773C112.793 115.594 112.818 115.415 112.843 115.231C112.875 114.999 112.875 114.999 112.908 114.763C112.979 114.297 113.069 113.837 113.164 113.375Z" fill="black"/>
<path d="M187.098 0.565953C196.825 0.546838 206.551 0.537629 216.277 0.541717C217.425 0.542191 218.573 0.542583 219.721 0.542925C219.95 0.542994 220.178 0.543063 220.414 0.543135C224.116 0.544062 227.817 0.538339 231.519 0.530162C235.317 0.521921 239.114 0.520818 242.912 0.526353C245.256 0.529543 247.599 0.527154 249.943 0.517646C251.55 0.511662 253.157 0.512605 254.764 0.519009C255.691 0.522501 256.618 0.522925 257.545 0.515126C258.395 0.50805 259.244 0.509691 260.093 0.518215C260.4 0.519765 260.707 0.518139 261.014 0.512984C263.276 0.47752 263.276 0.47752 264.239 1.15033C264.879 1.81394 265.327 2.29501 265.444 3.2277C265.424 3.77641 265.352 4.30176 265.257 4.84208C265.17 5.35236 265.102 5.86358 265.036 6.37691C264.871 7.64058 264.691 8.90183 264.51 10.1633C264.447 10.6056 264.384 11.048 264.322 11.4904C264.169 12.5652 264.016 13.6398 263.861 14.7143C264.047 14.708 264.047 14.708 264.237 14.7016C265.531 14.6597 266.825 14.6314 268.12 14.6107C268.602 14.6012 269.084 14.5884 269.567 14.572C270.262 14.549 270.957 14.5384 271.653 14.5301C271.867 14.5203 272.081 14.5106 272.301 14.5006C273.501 14.4997 274.179 14.6817 275.056 15.5276C275.527 16.0292 275.737 16.3765 275.757 17.0715C275.712 17.6738 275.638 18.2664 275.555 18.8645C275.514 19.192 275.514 19.192 275.472 19.5261C275.378 20.2674 275.276 21.0075 275.173 21.7477C275.134 22.0299 275.096 22.3121 275.057 22.5943C274.953 23.3535 274.848 24.1126 274.742 24.8717C274.654 25.5066 274.567 26.1415 274.479 26.7764C274.273 28.2728 274.066 29.7691 273.859 31.2654C273.645 32.8092 273.432 34.3532 273.22 35.8973C273.037 37.2252 272.854 38.553 272.67 39.8808C272.56 40.673 272.451 41.4652 272.342 42.2575C272.24 43.0005 272.137 43.7434 272.034 44.4863C271.996 44.7592 271.958 45.0323 271.921 45.3053C271.87 45.6769 271.818 46.0483 271.766 46.4198C271.737 46.6279 271.709 46.8361 271.679 47.0506C271.594 47.5385 271.594 47.5385 271.406 47.9158C267.422 47.9158 263.439 47.9158 259.335 47.9158C259.134 49.3938 259.134 49.3938 258.929 50.9017C258.844 51.5258 258.759 52.15 258.674 52.7741C258.538 53.7648 258.403 54.7555 258.269 55.7463C258.16 56.545 258.051 57.3437 257.942 58.1424C257.901 58.4472 257.859 58.7519 257.818 59.0567C257.76 59.4835 257.702 59.9103 257.643 60.337C257.61 60.58 257.577 60.823 257.543 61.0733C257.449 61.6868 257.449 61.6868 257.26 62.4414C253.152 62.4414 249.044 62.4414 244.812 62.4414C244.629 63.8732 244.446 65.305 244.258 66.7802C244.201 67.2294 244.143 67.6785 244.084 68.1413C244.038 68.5011 243.992 68.861 243.946 69.2208C243.911 69.4964 243.911 69.4964 243.875 69.7775C243.852 69.9574 243.829 70.1372 243.806 70.3225C243.776 70.5537 243.776 70.5537 243.746 70.7896C243.661 71.4653 243.576 72.1411 243.492 72.8169C243.663 72.8143 243.663 72.8143 243.838 72.8116C246.619 72.7699 249.401 72.7387 252.183 72.7191C253.528 72.7094 254.874 72.6962 256.219 72.6745C257.392 72.6557 258.565 72.6436 259.738 72.6394C260.359 72.6369 260.979 72.6302 261.6 72.6174C262.295 72.6037 262.988 72.6018 263.683 72.6027C263.989 72.5925 263.989 72.5925 264.301 72.5821C265.485 72.5982 266.085 72.8244 266.926 73.6791C267.391 74.2684 267.736 74.7161 267.751 75.4798C267.693 75.8425 267.693 75.8425 267.634 76.2125C267.608 76.4586 267.582 76.7048 267.556 76.9584C267.52 77.2221 267.484 77.4855 267.446 77.7488C267.416 77.9668 267.416 77.9668 267.386 78.1891C267.32 78.6639 267.253 79.1386 267.186 79.6132C267.14 79.9447 267.094 80.2763 267.048 80.6078C266.952 81.2997 266.855 81.9915 266.758 82.6832C266.632 83.5715 266.509 84.4601 266.386 85.3488C266.291 86.0319 266.196 86.715 266.1 87.398C266.054 87.7258 266.008 88.0537 265.963 88.3816C265.9 88.8378 265.835 89.2939 265.771 89.7499C265.752 89.8862 265.733 90.0225 265.714 90.1629C265.58 91.0938 265.58 91.0938 265.37 91.304C264.873 91.3267 264.381 91.337 263.884 91.3394C263.726 91.3409 263.569 91.3424 263.406 91.3439C262.874 91.3487 262.342 91.3521 261.809 91.3554C261.429 91.3584 261.049 91.3615 260.669 91.3647C257.195 91.392 253.72 91.4061 250.245 91.4173C247.676 91.4257 245.107 91.4402 242.538 91.4628C240.733 91.4782 238.927 91.4863 237.122 91.4892C236.043 91.4911 234.965 91.4963 233.886 91.5093C232.871 91.5214 231.855 91.5245 230.84 91.5209C230.468 91.5211 230.095 91.5245 229.723 91.5315C226.945 91.5806 226.945 91.5806 225.91 90.9116C225.249 90.2294 224.853 89.7577 224.76 88.7954C224.791 88.1692 224.89 87.5806 225.008 86.9652C225.058 86.5783 225.105 86.1911 225.151 85.8036C225.205 85.4094 225.26 85.0152 225.316 84.6212C225.345 84.4111 225.374 84.201 225.404 83.9846C225.495 83.3234 225.588 82.6625 225.68 82.0015C225.743 81.5492 225.806 81.0968 225.869 80.6445C226.021 79.5443 226.175 78.4443 226.329 77.3443C226.202 77.3485 226.076 77.3527 225.946 77.357C224.628 77.3989 223.309 77.4273 221.99 77.448C221.498 77.4574 221.007 77.4703 220.515 77.4866C219.807 77.5096 219.099 77.5203 218.39 77.5286C218.172 77.5383 217.954 77.548 217.729 77.5581C216.533 77.5589 215.827 77.3882 214.943 76.5547C214.31 75.7433 214.162 75.2002 214.224 74.1774C214.29 73.7227 214.364 73.269 214.446 72.8169C214.501 72.3996 214.554 71.9821 214.606 71.5646C214.668 71.1394 214.731 70.7143 214.795 70.2893C214.828 70.0628 214.861 69.8362 214.896 69.6028C215 68.8897 215.106 68.1769 215.213 67.4641C215.284 66.9763 215.356 66.4884 215.428 66.0006C215.603 64.814 215.779 63.6277 215.955 62.4414C213.279 62.4414 210.603 62.4414 207.845 62.4414C207.768 63.1031 207.691 63.7648 207.612 64.4465C207.295 67.1111 206.923 69.7669 206.543 72.423C206.468 72.9422 206.394 73.4614 206.32 73.9806C206.146 75.2031 205.972 76.4255 205.796 77.6479C205.616 78.9062 205.437 80.1647 205.258 81.4232C205.103 82.5117 204.948 83.6 204.792 84.6884C204.7 85.3352 204.608 85.9821 204.516 86.629C204.414 87.3451 204.311 88.061 204.208 88.7768C204.163 89.0971 204.163 89.0971 204.117 89.4238C204.089 89.6175 204.061 89.8112 204.032 90.0107C204.008 90.1795 203.984 90.3484 203.959 90.5223C203.884 90.9268 203.884 90.9268 203.696 91.304C200.212 91.3526 196.728 91.3891 193.244 91.4116C191.626 91.4222 190.008 91.4368 188.39 91.4606C186.98 91.4813 185.569 91.4947 184.158 91.4993C183.412 91.502 182.666 91.5083 181.919 91.5234C181.215 91.5376 180.512 91.5418 179.808 91.5387C179.429 91.5396 179.05 91.5507 178.671 91.5622C177.408 91.5465 176.563 91.3499 175.587 90.5197C174.759 89.4561 174.731 88.6285 174.878 87.313C174.988 86.5192 175.126 85.7316 175.265 84.9424C175.334 84.501 175.402 84.0595 175.469 83.6177C175.615 82.6598 175.766 81.703 175.921 80.7464C176.167 79.2134 176.382 77.6768 176.59 76.1383C176.608 76.0068 176.625 75.8754 176.644 75.74C176.717 75.1993 176.79 74.6585 176.863 74.1177C177.055 72.6946 177.252 71.2722 177.45 69.8498C177.532 69.2534 177.615 68.657 177.698 68.0606C177.761 67.6029 177.825 67.1452 177.888 66.6875C178.087 65.2525 178.285 63.8175 178.484 62.3825C178.879 59.5285 179.274 56.6745 179.67 53.8205C180.046 51.1005 180.423 48.3804 180.8 45.6604C180.834 45.4103 180.834 45.4103 180.87 45.1553C181.009 44.1492 181.148 43.1431 181.288 42.137C181.494 40.6444 181.701 39.1517 181.907 37.659C181.93 37.4964 181.952 37.3337 181.976 37.1662C182.289 34.9007 182.603 32.6351 182.917 30.3696C183.111 28.9678 183.305 27.566 183.499 26.1642C183.52 26.0137 183.541 25.8632 183.563 25.708C184.099 21.836 184.635 17.9638 185.169 14.0915C185.259 13.4326 185.35 12.7737 185.441 12.1147C185.499 11.6989 185.556 11.2831 185.613 10.8673C185.641 10.6686 185.668 10.4699 185.696 10.2651C185.852 9.13387 186.008 8.00258 186.164 6.87125C186.256 6.20336 186.348 5.53551 186.44 4.86766C186.481 4.56703 186.523 4.26639 186.564 3.96573C186.619 3.56392 186.675 3.16215 186.73 2.76039C186.761 2.5394 186.791 2.3184 186.822 2.09071C186.899 1.57797 186.995 1.07379 187.098 0.565953ZM213.503 19.0531C213.196 20.414 213.196 20.414 212.966 21.777C212.94 21.9615 212.914 22.1461 212.888 22.3362C212.861 22.5327 212.834 22.7291 212.806 22.9315C212.777 23.1431 212.747 23.3546 212.717 23.5726C212.62 24.2674 212.525 24.9623 212.429 25.6572C212.362 26.1422 212.295 26.6272 212.228 27.1123C212.088 28.1267 211.948 29.1412 211.808 30.1558C211.648 31.3262 211.486 32.4965 211.323 33.6666C211.166 34.7963 211.01 35.9262 210.855 37.0561C210.789 37.5352 210.722 38.0143 210.656 38.4934C210.563 39.1628 210.471 39.8324 210.379 40.502C210.352 40.6992 210.324 40.8964 210.296 41.0996C210.271 41.2831 210.246 41.4665 210.22 41.6556C210.199 41.8135 210.177 41.9715 210.154 42.1342C210.099 42.7385 210.108 43.3474 210.108 43.9542C221 43.9542 231.893 43.9542 243.115 43.9542C243.413 42.4875 243.413 42.4875 243.652 41.0178C243.678 40.8327 243.704 40.6476 243.73 40.4569C243.757 40.2609 243.784 40.0648 243.812 39.8628C243.841 39.6509 243.871 39.439 243.901 39.2207C243.998 38.5261 244.093 37.8313 244.189 37.1365C244.256 36.6513 244.323 36.1661 244.39 35.6809C244.53 34.6667 244.67 33.6525 244.81 32.6383C244.971 31.4678 245.133 30.2974 245.295 29.1271C245.452 27.9973 245.608 26.8674 245.763 25.7374C245.829 25.2581 245.896 24.7788 245.962 24.2996C246.055 23.6306 246.147 22.9615 246.239 22.2923C246.266 22.0947 246.294 21.8972 246.322 21.6936C246.347 21.5106 246.372 21.3277 246.398 21.1392C246.419 20.9813 246.441 20.8234 246.463 20.6608C246.515 20.1272 246.51 19.5892 246.51 19.0531C235.618 19.0531 224.725 19.0531 213.503 19.0531Z" fill="black"/>
<path d="M25.8392 0.377237C28.3876 0.374744 30.936 0.372587 33.4844 0.370605C33.78 0.370372 33.78 0.370372 34.0817 0.370135C39.0979 0.366227 44.1142 0.3647 49.1304 0.368533C49.3521 0.368698 49.5737 0.368863 49.8021 0.369033C51.8192 0.370544 53.8363 0.372148 55.8533 0.37412C60.6382 0.378747 65.4229 0.379143 70.2077 0.357859C72.6365 0.347135 75.0652 0.342467 77.494 0.343813C78.9814 0.344358 80.4685 0.338783 81.9558 0.325024C83.0703 0.315323 84.1845 0.316254 85.299 0.321418C85.7448 0.32178 86.1906 0.318625 86.6363 0.31155C90.0178 0.260346 90.0178 0.260346 90.9925 0.952403C91.6769 1.66736 91.9931 2.26831 92.1177 3.25237C92.0958 3.93724 92.0031 4.57737 91.8826 5.25179C91.8472 5.4941 91.8117 5.73642 91.7752 5.98608C91.6815 6.62528 91.5763 7.26201 91.4684 7.89894C91.3607 8.54806 91.2646 9.19889 91.1672 9.84963C90.6132 13.5107 90.6132 13.5107 90.3428 14.5256C90.5321 14.5193 90.5321 14.5193 90.7252 14.5129C92.0439 14.471 93.3624 14.4427 94.6816 14.422C95.1732 14.4125 95.6647 14.3996 96.1562 14.3833C96.8647 14.3603 97.5725 14.3497 98.2813 14.3414C98.6085 14.3268 98.6085 14.3268 98.9423 14.3119C100.153 14.311 100.843 14.4849 101.729 15.3388C102.291 16.0663 102.517 16.5408 102.452 17.461C102.382 17.867 102.306 18.2719 102.225 18.6758C102.176 19.0464 102.128 19.4171 102.083 19.7882C101.996 20.4896 101.897 21.1893 101.801 21.8894C101.759 22.1935 101.718 22.4977 101.676 22.8018C101.59 23.4343 101.503 24.0667 101.415 24.6991C101.304 25.5096 101.193 26.3203 101.082 27.1311C100.997 27.7569 100.911 28.3827 100.825 29.0085C100.784 29.3076 100.743 29.6067 100.702 29.9058C100.646 30.3221 100.588 30.7382 100.531 31.1544C100.498 31.3909 100.466 31.6275 100.432 31.8712C100.339 32.4468 100.339 32.4468 100.15 33.0128C100.017 33.0126 99.884 33.0125 99.7468 33.0124C97.278 33.0103 94.8092 33.0111 92.3404 33.0254C90.2893 33.0371 88.2383 33.0398 86.1871 33.0367C84.9582 33.0352 83.7294 33.0373 82.5005 33.047C81.2958 33.0565 80.0915 33.0568 78.8869 33.0507C78.4318 33.05 77.9768 33.0525 77.5218 33.0585C73.5536 33.1073 73.5536 33.1073 72.4061 32.0201C70.8738 28.9868 73.1722 20.6139 73.3682 19.2417C62.3516 19.2417 51.3351 19.2417 39.9847 19.2417C39.3312 24.0974 39.3312 24.0974 38.6645 29.0512C38.3486 31.3311 38.0322 33.6107 37.7105 35.8897C37.6277 36.4772 37.5455 37.0647 37.4632 37.6523C37.3826 38.2275 37.3016 38.8026 37.2205 39.3777C37.1826 39.6467 37.1449 39.9156 37.1073 40.1846C37.0559 40.5516 37.0039 40.9186 36.952 41.2855C36.9229 41.4922 36.8938 41.6989 36.8638 41.9118C36.7934 42.3515 36.7011 42.7693 36.5898 43.1996C36.8162 43.1994 37.0427 43.1992 37.276 43.1991C42.6631 43.195 48.0503 43.1919 53.4375 43.1899C54.102 43.1897 54.7664 43.1895 55.4309 43.1892C55.5632 43.1892 55.6955 43.1891 55.8318 43.1891C57.9676 43.1883 60.1035 43.1868 62.2393 43.185C64.4343 43.1833 66.6294 43.1822 68.8244 43.1818C70.0558 43.1816 71.2873 43.181 72.5188 43.1796C73.68 43.1783 74.8411 43.178 76.0023 43.1782C76.4265 43.1782 76.8506 43.1778 77.2748 43.1771C79.1602 43.174 81.046 43.1753 82.93 43.2555C83.1778 43.2654 83.4255 43.2753 83.6807 43.2855C84.5011 43.42 84.9107 43.7256 85.4147 44.3712C85.485 44.4826 85.5552 44.594 85.6276 44.7087C85.7521 44.8955 85.8766 45.0823 86.0049 45.2747C86.0112 45.8174 86.0112 45.8174 85.9533 46.47C85.9326 46.707 85.9118 46.944 85.8905 47.1882C85.7781 48.2891 85.6499 49.3869 85.509 50.4845C85.48 50.7153 85.4509 50.946 85.421 51.1837C85.3295 51.9102 85.2369 52.6365 85.1443 53.3628C85.0815 53.8597 85.0188 54.3566 84.9561 54.8535C84.8035 56.0624 84.65 57.2711 84.496 58.4798C84.6198 58.4756 84.7436 58.4714 84.8712 58.4671C86.1654 58.4252 87.4594 58.3969 88.7542 58.3762C89.2366 58.3667 89.719 58.3539 90.2013 58.3375C90.8967 58.3145 91.5914 58.3039 92.2871 58.2956C92.5011 58.2858 92.7151 58.2761 92.9356 58.2661C93.8546 58.2654 94.4494 58.3133 95.2077 58.859C95.8503 59.5119 96.4803 60.1533 96.4917 61.1128C96.4372 61.4852 96.4372 61.4852 96.3495 61.882C96.2991 62.1957 96.2488 62.5094 96.1986 62.8231C96.1669 62.9992 96.1352 63.1752 96.1025 63.3565C95.966 64.1554 95.862 64.9576 95.7568 65.761C95.7398 65.8905 95.7228 66.02 95.7053 66.1535C95.6881 66.2852 95.6708 66.417 95.653 66.5528C95.563 67.2314 95.4684 67.9094 95.3737 68.5874C95.3546 68.7241 95.3355 68.8608 95.3159 69.0017C95.277 69.28 95.2381 69.5584 95.1992 69.8368C95.1202 70.4044 95.0418 70.9721 94.9635 71.5399C94.8876 72.0893 94.8113 72.6388 94.7348 73.1881C94.6986 73.4492 94.6624 73.7102 94.6263 73.9713C94.5762 74.3336 94.5255 74.6958 94.4748 75.058C94.4462 75.2634 94.4176 75.4687 94.3882 75.6803C94.3036 76.2124 94.3036 76.2124 94.115 76.967C87.9532 76.8736 87.9532 76.8736 81.6669 76.7783C81.6046 77.6499 81.5424 78.5214 81.4783 79.4194C81.372 80.2804 81.2599 81.1378 81.1364 81.9963C81.0873 82.3453 81.0873 82.3453 81.0371 82.7014C80.9684 83.188 80.8993 83.6744 80.8298 84.1609C80.7233 84.9057 80.6181 85.6508 80.5131 86.3959C80.4459 86.8708 80.3786 87.3458 80.3113 87.8207C80.2798 88.0427 80.2484 88.2648 80.216 88.4936C80.1716 88.8036 80.1716 88.8036 80.1263 89.1199C80.1005 89.3008 80.0747 89.4818 80.0481 89.6682C79.9722 90.154 79.8787 90.6335 79.7808 91.1153C77.7729 91.1179 75.7651 91.12 73.7572 91.122C73.5982 91.1221 73.4393 91.1223 73.2755 91.1224C69.0832 91.1265 64.8909 91.1277 60.6986 91.124C60.3065 91.1237 59.9145 91.1234 59.5225 91.123C57.8992 91.1216 56.276 91.1202 54.6527 91.1184C49.4275 91.113 44.2025 91.1166 38.9773 91.1325C34.843 91.145 30.7087 91.1501 26.5744 91.1488C23.9591 91.1482 21.3439 91.154 18.7286 91.1675C16.9233 91.1763 15.1181 91.1775 13.3127 91.1727C12.2633 91.1702 11.2141 91.1711 10.1647 91.181C9.1985 91.1901 8.23276 91.1896 7.26652 91.1815C6.91614 91.1802 6.56572 91.1825 6.21539 91.1886C3.61276 91.2315 3.61276 91.2315 2.6155 90.4837C1.88235 89.6363 1.42038 88.9751 1.42237 87.8316C1.47116 87.474 1.53051 87.1177 1.59873 86.7632C1.6282 86.5674 1.65767 86.3716 1.68803 86.1698C1.78421 85.5448 1.89366 84.9231 2.00394 84.3005C2.0682 83.8993 2.13157 83.498 2.19402 83.0965C2.3986 81.8067 2.61411 80.5188 2.8291 79.2307C3.1403 77.1764 3.4515 75.122 3.77213 73.0054C24.3115 73.0054 44.8508 73.0054 66.0125 73.0054C66.0747 72.1962 66.137 71.3869 66.2011 70.5531C66.2807 69.925 66.3645 69.3015 66.4604 68.6762C66.4848 68.5131 66.5092 68.35 66.5344 68.1819C66.5853 67.8428 66.6367 67.5038 66.6885 67.1649C66.7678 66.6444 66.8456 66.1237 66.9231 65.603C66.9731 65.2715 67.0232 64.94 67.0734 64.6085C67.0966 64.4531 67.1198 64.2977 67.1437 64.1376C67.311 63.0508 67.311 63.0508 67.5213 62.63C67.275 62.6319 67.0287 62.6338 66.775 62.6358C60.9257 62.6807 55.0765 62.7149 49.227 62.7359C48.5068 62.7385 47.7865 62.7412 47.0663 62.744C46.9229 62.7445 46.7795 62.7451 46.6318 62.7456C44.3113 62.7546 41.9909 62.771 39.6705 62.7901C37.2888 62.8095 34.9071 62.821 32.5253 62.8252C31.0561 62.8281 29.5871 62.837 28.1179 62.8539C26.9905 62.8662 25.8634 62.8675 24.7359 62.8647C24.274 62.8653 23.8121 62.8694 23.3502 62.8773C19.7033 62.9371 19.7033 62.9371 18.7674 62.1977C17.9214 61.239 17.6446 60.5429 17.6981 59.2601C17.7638 58.8102 17.837 58.3613 17.9177 57.9139C17.967 57.5024 18.0146 57.0908 18.0603 56.6789C18.1144 56.2617 18.1693 55.8446 18.2249 55.4276C18.2539 55.2052 18.283 54.9828 18.3129 54.7537C18.4044 54.0542 18.497 53.3548 18.5896 52.6554C18.6524 52.1767 18.7151 51.6979 18.7778 51.2192C18.9304 50.055 19.0838 48.891 19.2379 47.7271C19.1165 47.7312 18.995 47.7354 18.8698 47.7398C17.6001 47.7816 16.3306 47.81 15.0603 47.8307C14.587 47.8401 14.1138 47.853 13.6406 47.8694C12.9583 47.8924 12.2768 47.903 11.5942 47.9113C11.2793 47.9259 11.2793 47.9259 10.9581 47.9408C9.78339 47.9416 9.10181 47.755 8.23419 46.9374C7.61891 46.1192 7.46362 45.6436 7.57267 44.6283C7.59629 44.3956 7.61992 44.163 7.64426 43.9233C7.6735 43.6845 7.70275 43.4457 7.73288 43.1996C7.77239 42.8634 7.77239 42.8634 7.8127 42.5205C7.90164 41.8035 7.99856 41.0878 8.09757 40.3721C8.13453 40.1004 8.17141 39.8286 8.20823 39.5568C8.30723 38.8276 8.40726 38.0985 8.5075 37.3694C8.61271 36.6029 8.71699 35.8363 8.82138 35.0696C8.99649 33.7846 9.17222 32.4996 9.34838 31.2147C9.59661 29.4041 9.84367 27.5934 10.0905 25.7827C10.2621 24.5246 10.4339 23.2665 10.6058 22.0084C10.6473 21.7044 10.6889 21.4003 10.7304 21.0963C10.8487 20.2305 10.9671 19.3648 11.0858 18.4991C11.1216 18.2374 11.1575 17.9756 11.1932 17.7139C11.2421 17.3559 11.2913 16.9979 11.3404 16.6399C11.3678 16.4399 11.3952 16.2399 11.4234 16.0338C11.5053 15.4669 11.5995 14.9019 11.6936 14.3369C15.7393 14.3369 19.7849 14.3369 23.9531 14.3369C24.2922 11.6485 24.2922 11.6485 24.63 8.95997C24.8911 6.89357 25.1738 4.83157 25.482 2.77163C25.5166 2.5397 25.5511 2.30776 25.5867 2.06879C25.6707 1.50492 25.7548 0.941063 25.8392 0.377237Z" fill="black"/>
<path d="M106.94 0.565833C116.642 0.518346 126.345 0.481777 136.047 0.459868C137.192 0.457273 138.337 0.454587 139.483 0.451845C139.825 0.451029 139.825 0.451029 140.173 0.450196C143.866 0.441164 147.558 0.424802 151.251 0.405734C155.039 0.386335 158.828 0.374804 162.616 0.370591C164.954 0.367743 167.292 0.358744 169.63 0.341897C171.233 0.330935 172.836 0.327611 174.438 0.330308C175.364 0.331638 176.288 0.329588 177.213 0.318471C178.061 0.308363 178.907 0.307867 179.755 0.314957C180.061 0.315833 180.367 0.313206 180.673 0.306689C182.929 0.261455 182.929 0.261455 183.893 1.00069C184.729 1.95474 185.123 2.59629 185.062 3.88674C184.994 4.35298 184.918 4.8181 184.835 5.28195C184.801 5.53591 184.769 5.7901 184.738 6.04449C184.637 6.88194 184.521 7.71694 184.404 8.55228C184.367 8.82303 184.329 9.0938 184.292 9.36457C184.156 10.354 184.018 11.3433 183.88 12.3325C183.573 14.5503 183.265 16.7681 182.949 19.053C174.92 19.1153 166.891 19.1775 158.619 19.2417C158.322 21.3921 158.026 23.5426 157.721 25.7582C156.774 32.6334 155.827 39.5085 154.88 46.3836C154.733 47.4509 154.586 48.5182 154.439 49.5855C154.409 49.798 154.38 50.0105 154.35 50.2295C153.875 53.6732 153.401 57.117 152.927 60.5609C152.441 64.0927 151.954 67.6246 151.467 71.1563C151.167 73.3368 150.866 75.5174 150.566 77.698C150.361 79.1919 150.155 80.6857 149.949 82.1796C149.83 83.0423 149.711 83.9051 149.592 84.7679C149.484 85.5571 149.375 86.3463 149.266 87.1354C149.226 87.4215 149.187 87.7077 149.148 87.9939C149.095 88.3817 149.041 88.7694 148.987 89.1572C148.958 89.3729 148.928 89.5887 148.897 89.811C148.827 90.2563 148.742 90.6813 148.622 91.1153C145.111 91.1594 141.599 91.1926 138.087 91.213C136.456 91.2227 134.825 91.236 133.195 91.2576C131.773 91.2764 130.351 91.2886 128.929 91.2928C128.177 91.2952 127.425 91.301 126.672 91.3147C125.963 91.3276 125.254 91.3315 124.545 91.3286C124.162 91.3294 123.78 91.3395 123.398 91.35C122.132 91.3358 121.366 91.1955 120.435 90.3002C119.898 89.59 119.662 89.1151 119.721 88.2232C119.793 87.8028 119.871 87.3835 119.954 86.9651C120.015 86.5342 120.069 86.1027 120.123 85.6709C120.234 84.7991 120.358 83.9292 120.479 83.0588C120.533 82.6645 120.587 82.2702 120.642 81.8759C120.789 80.804 120.938 79.7322 121.087 78.6603C121.245 77.5198 121.402 76.3791 121.559 75.2384C121.828 73.2954 122.096 71.3524 122.365 69.4095C122.644 67.3998 122.922 65.3901 123.199 63.3803C123.216 63.2561 123.234 63.1319 123.251 63.0039C123.338 62.3769 123.425 61.7499 123.511 61.1229C124.09 56.9327 124.669 52.7425 125.249 48.5524C125.825 44.3867 126.401 40.2209 126.976 36.0549C127.094 35.1975 127.212 34.34 127.33 33.4825C127.349 33.3477 127.368 33.2129 127.387 33.0739C127.477 32.423 127.566 31.7721 127.656 31.1211C127.823 29.9143 127.989 28.7075 128.156 27.5006C128.306 26.4105 128.457 25.3203 128.607 24.2302C128.66 23.8471 128.713 23.4641 128.766 23.081C128.836 22.5741 128.906 22.0671 128.976 21.5602C128.996 21.416 129.016 21.2717 129.036 21.1231C129.141 20.368 129.255 19.6156 129.384 18.8644C129.268 18.8661 129.152 18.8678 129.033 18.8696C126.204 18.9114 123.375 18.9425 120.546 18.9621C119.178 18.9718 117.809 18.985 116.441 19.0067C115.248 19.0255 114.056 19.0377 112.862 19.0419C112.231 19.0443 111.6 19.051 110.969 19.0638C110.263 19.0776 109.557 19.0794 108.851 19.0785C108.643 19.0853 108.436 19.0921 108.222 19.0991C107.085 19.0839 106.407 18.8761 105.559 18.0964C104.898 17.2207 104.791 16.6864 104.889 15.6004C104.901 15.4693 104.912 15.3383 104.924 15.2032C105.06 13.7077 105.269 12.2207 105.485 10.735C105.527 10.439 105.569 10.143 105.611 9.84703C105.72 9.07904 105.831 8.31125 105.941 7.54351C106.055 6.75564 106.167 5.96757 106.279 5.17952C106.498 3.64144 106.719 2.10357 106.94 0.565833Z" fill="black"/>
<path d="M362.314 113.753C370.003 113.748 377.691 113.745 385.379 113.743C386.296 113.743 387.213 113.743 388.129 113.742C388.312 113.742 388.494 113.742 388.682 113.742C391.6 113.742 394.517 113.74 397.435 113.738C400.45 113.736 403.464 113.735 406.479 113.735C408.164 113.735 409.848 113.734 411.533 113.733C412.176 113.732 412.819 113.732 413.463 113.731C413.699 113.731 413.699 113.731 413.941 113.731C415.649 113.73 417.357 113.731 419.064 113.737C419.29 113.738 419.29 113.738 419.519 113.738C420.124 113.741 420.728 113.743 421.333 113.745C423.241 113.753 425.149 113.751 427.058 113.738C428.383 113.73 429.708 113.728 431.033 113.73C431.817 113.732 432.602 113.73 433.386 113.72C434.112 113.71 434.838 113.71 435.564 113.716C435.828 113.716 436.093 113.714 436.357 113.708C437.454 113.684 438.336 113.677 439.245 114.336C440.36 115.494 440.36 115.494 440.466 116.422C440.431 117.056 440.326 117.656 440.209 118.28C440.161 118.658 440.112 119.037 440.067 119.415C439.981 120.117 439.882 120.818 439.785 121.519C439.743 121.823 439.702 122.128 439.66 122.432C439.574 123.064 439.487 123.696 439.399 124.328C439.288 125.139 439.177 125.95 439.067 126.761C438.981 127.387 438.895 128.013 438.809 128.638C438.768 128.938 438.727 129.237 438.687 129.536C438.63 129.952 438.572 130.368 438.515 130.783C438.482 131.02 438.45 131.256 438.416 131.5C438.323 132.051 438.323 132.051 438.134 132.429C430.168 132.429 422.201 132.429 413.993 132.429C413.697 134.579 413.401 136.73 413.095 138.945C412.149 145.82 411.202 152.695 410.254 159.571C410.107 160.638 409.96 161.705 409.813 162.773C409.784 162.985 409.754 163.198 409.724 163.416C409.25 166.86 408.775 170.304 408.301 173.748C407.815 177.28 407.328 180.812 406.842 184.343C406.541 186.524 406.241 188.704 405.941 190.885C405.735 192.379 405.529 193.873 405.323 195.367C405.204 196.229 405.085 197.092 404.967 197.955C404.858 198.744 404.749 199.533 404.64 200.322C404.601 200.609 404.561 200.895 404.522 201.181C404.469 201.569 404.415 201.956 404.362 202.344C404.332 202.56 404.302 202.776 404.272 202.998C404.202 203.443 404.116 203.868 403.997 204.302C400.485 204.346 396.973 204.38 393.461 204.4C391.83 204.41 390.2 204.423 388.569 204.445C387.147 204.463 385.726 204.476 384.304 204.48C383.551 204.482 382.799 204.488 382.046 204.502C381.337 204.515 380.628 204.518 379.919 204.516C379.537 204.516 379.154 204.527 378.772 204.537C377.514 204.523 376.739 204.384 375.809 203.499C375.321 202.978 375.144 202.617 375.128 201.901C375.172 201.25 375.245 200.61 375.328 199.963C375.355 199.745 375.382 199.526 375.409 199.3C375.501 198.577 375.6 197.855 375.701 197.133C375.739 196.855 375.777 196.577 375.815 196.299C375.919 195.543 376.024 194.787 376.129 194.031C376.242 193.213 376.355 192.395 376.467 191.577C376.688 189.977 376.909 188.378 377.131 186.778C377.388 184.915 377.646 183.052 377.903 181.189C378.361 177.865 378.821 174.542 379.281 171.218C379.727 167.993 380.173 164.768 380.618 161.543C380.645 161.344 380.673 161.146 380.701 160.941C380.742 160.643 380.742 160.643 380.784 160.339C380.839 159.939 380.894 159.54 380.949 159.14C380.977 158.943 381.004 158.746 381.032 158.543C381.456 155.468 381.881 152.393 382.306 149.319C382.46 148.204 382.614 147.09 382.768 145.976C383.012 144.209 383.256 142.443 383.5 140.677C383.612 139.87 383.724 139.063 383.835 138.256C383.937 137.517 384.039 136.779 384.141 136.041C384.179 135.773 384.215 135.506 384.252 135.238C384.302 134.875 384.353 134.513 384.403 134.15C384.431 133.948 384.459 133.746 384.488 133.538C384.563 133.039 384.655 132.546 384.759 132.051C384.641 132.053 384.524 132.055 384.404 132.057C381.548 132.098 378.692 132.13 375.836 132.149C374.455 132.159 373.074 132.172 371.693 132.194C370.489 132.213 369.285 132.225 368.081 132.229C367.444 132.231 366.807 132.237 366.17 132.251C365.457 132.265 364.745 132.266 364.032 132.266C363.822 132.272 363.613 132.279 363.397 132.286C362.524 132.275 361.97 132.226 361.272 131.677C360.304 130.582 360.176 129.879 360.24 128.467C360.285 127.95 360.354 127.438 360.43 126.924C360.45 126.78 360.471 126.636 360.492 126.488C360.558 126.019 360.626 125.551 360.694 125.083C360.74 124.755 360.787 124.428 360.833 124.1C360.955 123.243 361.078 122.386 361.201 121.53C361.327 120.653 361.452 119.777 361.577 118.9C361.821 117.184 362.067 115.469 362.314 113.753Z" fill="black"/>
<path d="M208.977 113.564C215.507 113.517 222.038 113.48 228.568 113.458C229.34 113.455 230.111 113.453 230.882 113.45C231.113 113.449 231.113 113.449 231.348 113.448C233.833 113.439 236.318 113.423 238.803 113.404C241.353 113.385 243.904 113.373 246.454 113.369C248.028 113.366 249.601 113.357 251.174 113.34C252.254 113.329 253.333 113.326 254.413 113.329C255.035 113.33 255.657 113.327 256.28 113.317C260.208 113.257 260.208 113.257 261.142 114.016C261.797 114.784 262.121 115.365 262.277 116.363C262.23 116.597 262.184 116.831 262.135 117.072C262.085 117.367 262.034 117.661 261.984 117.956C261.953 118.123 261.921 118.29 261.888 118.462C261.702 119.511 261.577 120.568 261.439 121.624C261.349 122.305 261.254 122.984 261.159 123.664C261.121 123.942 261.082 124.221 261.043 124.499C261.024 124.637 261.005 124.776 260.985 124.919C260.906 125.489 260.827 126.06 260.749 126.63C260.673 127.181 260.597 127.732 260.521 128.283C260.484 128.545 260.448 128.807 260.412 129.07C260.362 129.433 260.311 129.797 260.26 130.161C260.232 130.367 260.203 130.573 260.174 130.786C260.089 131.297 260.089 131.297 259.901 131.863C255.917 131.863 251.934 131.863 247.83 131.863C247.55 134.104 247.55 134.104 247.264 136.39C247.158 137.184 247.051 137.977 246.939 138.77C246.911 138.971 246.883 139.173 246.854 139.38C246.763 140.034 246.671 140.688 246.579 141.343C246.513 141.82 246.446 142.297 246.379 142.774C246.219 143.922 246.058 145.07 245.897 146.218C245.766 147.151 245.636 148.084 245.505 149.016C245.487 149.15 245.468 149.284 245.449 149.422C245.411 149.693 245.373 149.965 245.335 150.237C244.98 152.77 244.625 155.302 244.27 157.835C243.966 160.006 243.662 162.178 243.358 164.35C243.004 166.881 242.65 169.411 242.296 171.942C242.258 172.211 242.22 172.481 242.182 172.75C242.164 172.883 242.145 173.015 242.126 173.152C241.995 174.085 241.865 175.018 241.734 175.952C241.559 177.205 241.383 178.458 241.208 179.711C241.143 180.171 241.079 180.631 241.014 181.091C240.927 181.718 240.839 182.344 240.751 182.971C240.725 183.154 240.7 183.338 240.674 183.527C240.65 183.694 240.626 183.862 240.602 184.034C240.582 184.179 240.561 184.323 240.54 184.472C240.475 184.864 240.387 185.243 240.285 185.626C240.409 185.622 240.533 185.617 240.661 185.612C241.955 185.566 243.249 185.535 244.544 185.512C245.026 185.502 245.509 185.488 245.991 185.47C250.163 185.318 250.163 185.318 251.181 186.018C251.822 186.71 252.165 187.197 252.17 188.166C252.127 188.77 252.057 189.365 251.979 189.965C251.949 190.206 251.919 190.447 251.888 190.695C251.783 191.526 251.669 192.356 251.555 193.185C251.513 193.49 251.472 193.795 251.43 194.099C251.344 194.732 251.257 195.366 251.169 195.999C251.058 196.811 250.947 197.623 250.837 198.436C250.751 199.063 250.665 199.689 250.579 200.316C250.538 200.616 250.497 200.915 250.457 201.215C250.4 201.632 250.342 202.049 250.285 202.465C250.252 202.702 250.22 202.939 250.186 203.183C250.093 203.736 250.093 203.736 249.904 204.113C243.398 204.157 236.891 204.19 230.385 204.21C229.616 204.212 228.848 204.215 228.079 204.217C227.927 204.218 227.774 204.218 227.616 204.219C225.14 204.227 222.664 204.242 220.188 204.259C217.647 204.277 215.106 204.287 212.565 204.291C210.997 204.294 209.43 204.302 207.862 204.317C206.786 204.327 205.711 204.33 204.636 204.328C204.015 204.326 203.395 204.329 202.775 204.338C198.892 204.393 198.892 204.393 197.925 203.732C197.263 203.064 196.834 202.408 196.788 201.452C196.827 201.21 196.866 200.967 196.906 200.718C196.933 200.466 196.959 200.215 196.985 199.963C197.021 199.696 197.058 199.428 197.096 199.161C197.127 198.94 197.127 198.94 197.158 198.714C197.224 198.233 197.292 197.751 197.36 197.269C197.406 196.933 197.453 196.597 197.499 196.261C197.621 195.38 197.744 194.499 197.868 193.618C198.016 192.56 198.162 191.501 198.309 190.441C198.532 188.836 198.756 187.231 198.981 185.626C203.026 185.626 207.072 185.626 211.24 185.626C211.364 184.506 211.489 183.385 211.617 182.231C211.717 181.465 211.818 180.7 211.926 179.935C211.969 179.627 211.969 179.627 212.013 179.312C212.108 178.635 212.203 177.959 212.298 177.283C212.366 176.792 212.435 176.302 212.503 175.812C212.669 174.627 212.835 173.443 213.001 172.258C213.136 171.296 213.271 170.334 213.405 169.371C213.425 169.234 213.444 169.096 213.464 168.954C213.503 168.675 213.542 168.395 213.581 168.116C213.947 165.505 214.313 162.894 214.679 160.283C214.994 158.043 215.307 155.803 215.621 153.562C215.985 150.956 216.35 148.349 216.716 145.742C216.755 145.464 216.794 145.187 216.833 144.909C216.852 144.773 216.871 144.636 216.891 144.495C217.026 143.533 217.16 142.57 217.295 141.608C217.476 140.315 217.657 139.022 217.839 137.729C217.905 137.254 217.972 136.779 218.038 136.304C218.129 135.657 218.219 135.011 218.311 134.364C218.337 134.175 218.363 133.985 218.39 133.789C218.415 133.617 218.439 133.444 218.465 133.266C218.485 133.117 218.506 132.968 218.528 132.814C218.596 132.429 218.596 132.429 218.784 131.863C218.599 131.869 218.599 131.869 218.409 131.875C217.115 131.917 215.821 131.946 214.526 131.966C214.044 131.976 213.561 131.989 213.079 132.005C212.384 132.028 211.689 132.039 210.993 132.047C210.779 132.057 210.565 132.066 210.345 132.076C209.43 132.077 208.832 132.027 208.074 131.49C206.936 130.344 206.936 130.344 206.867 129.603C206.879 128.633 206.951 127.694 207.092 126.735C207.123 126.519 207.123 126.519 207.154 126.299C207.22 125.831 207.288 125.362 207.356 124.894C207.402 124.566 207.449 124.239 207.495 123.911C207.617 123.054 207.74 122.198 207.864 121.341C207.99 120.465 208.114 119.588 208.239 118.712C208.484 116.996 208.73 115.28 208.977 113.564Z" fill="black"/>
</svg>
